<?xml version="1.0" encoding="UTF-8" standalone="no"?>
<!-- Created with Inkscape (http://www.inkscape.org/) -->
<svg
   xmlns:dc="http://purl.org/dc/elements/1.1/"
   xmlns:cc="http://creativecommons.org/ns#"
   xmlns:rdf="http://www.w3.org/1999/02/22-rdf-syntax-ns#"
   xmlns:svg="http://www.w3.org/2000/svg"
   xmlns="http://www.w3.org/2000/svg"
   xmlns:sodipodi="http://sodipodi.sourceforge.net/DTD/sodipodi-0.dtd"
   xmlns:inkscape="http://www.inkscape.org/namespaces/inkscape"
   id="svg2"
   sodipodi:version="0.32"
   inkscape:version="0.46"
   width="589.5"
   height="464"
   version="1.0"
   sodipodi:docbase="C:\Documents and Settings\-\Pulpit"
   sodipodi:docname="Pyrrhic_War_Italy_en.svg"
   inkscape:output_extension="org.inkscape.output.svg.inkscape"
   sodipodi:modified="true">
  <metadata
     id="metadata7">
    <rdf:RDF>
      <cc:Work
         rdf:about="">
        <dc:format>image/svg+xml</dc:format>
        <dc:type
           rdf:resource="http://purl.org/dc/dcmitype/StillImage" />
        <dc:source>http://www.barca.fsnet.co.uk/pyrrhic-war.htm</dc:source>
        <dc:relation>http://www.barca.fsnet.co.uk/sources.htm</dc:relation>
        <dc:title>Pyrrhic War (280-275 BC)</dc:title>
        <dc:date>2007-05-29</dc:date>
        <dc:creator>
          <cc:Agent>
            <dc:title>Piotr Michał Jaworski (PioM)</dc:title>
          </cc:Agent>
        </dc:creator>
        <dc:subject>
          <rdf:Bag>
            <rdf:li>Pyrrhic War</rdf:li>
            <rdf:li>(280-275 BC)</rdf:li>
            <rdf:li>Epir</rdf:li>
          </rdf:Bag>
        </dc:subject>
        <dc:contributor>
          <cc:Agent>
            <dc:title>http://pl.wikipedia.org/wiki/Wikipedysta:Piom</dc:title>
          </cc:Agent>
        </dc:contributor>
        <cc:license
           rdf:resource="http://creativecommons.org/licenses/GPL/2.0/" />
        <dc:description>Based on:
http://en.wikipedia.org/wiki/Image:Pyrrhus_route.jpg</dc:description>
      </cc:Work>
      <cc:License
         rdf:about="http://creativecommons.org/licenses/GPL/2.0/">
        <cc:permits
           rdf:resource="http://web.resource.org/cc/Reproduction" />
        <cc:permits
           rdf:resource="http://web.resource.org/cc/Distribution" />
        <cc:requires
           rdf:resource="http://web.resource.org/cc/Notice" />
        <cc:permits
           rdf:resource="http://web.resource.org/cc/DerivativeWorks" />
        <cc:requires
           rdf:resource="http://web.resource.org/cc/ShareAlike" />
        <cc:requires
           rdf:resource="http://web.resource.org/cc/SourceCode" />
      </cc:License>
    </rdf:RDF>
  </metadata>
  <defs
     id="defs5">
    <inkscape:perspective
       sodipodi:type="inkscape:persp3d"
       inkscape:vp_x="0 : 232 : 1"
       inkscape:vp_y="0 : 1000 : 0"
       inkscape:vp_z="589.5 : 232 : 1"
       inkscape:persp3d-origin="294.75 : 154.66667 : 1"
       id="perspective2547" />
  </defs>
  <sodipodi:namedview
     inkscape:window-height="740"
     inkscape:window-width="1280"
     inkscape:pageshadow="2"
     inkscape:pageopacity="0.0"
     guidetolerance="10.0"
     gridtolerance="10.0"
     objecttolerance="10.0"
     borderopacity="1.0"
     bordercolor="#666666"
     pagecolor="#ffffff"
     id="base"
     inkscape:zoom="1.5158274"
     inkscape:cx="221.67936"
     inkscape:cy="171.90614"
     inkscape:window-x="-4"
     inkscape:window-y="-4"
     inkscape:current-layer="layer2"
     showguides="true"
     inkscape:guide-bbox="true"
     width="589.5px"
     height="464px"
     showgrid="false" />
  <g
     inkscape:groupmode="layer"
     id="layer4"
     inkscape:label="Water"
     style="display:inline"
     sodipodi:insensitive="true"
     transform="translate(0.3734912,2.0580935)">
    <rect
       style="opacity:1;fill:#c4edff;fill-opacity:1;fill-rule:nonzero;stroke:none;stroke-width:1.60000002;stroke-linecap:round;stroke-miterlimit:4;stroke-dasharray:none;stroke-dashoffset:0;stroke-opacity:1"
       id="rect8050"
       width="587.82391"
       height="462.0835"
       x="0.42650881"
       y="-1.2580935" />
  </g>
  <g
     inkscape:groupmode="layer"
     id="layer3"
     inkscape:label="Land"
     style="display:inline"
     sodipodi:insensitive="true"
     transform="translate(0.3734912,2.0580935)">
    <path
       id="path2161"
       style="fill:#ffebc7;fill-opacity:1;fill-rule:evenodd;stroke:#0ad1ff;stroke-width:1.5;stroke-linecap:butt;stroke-linejoin:miter;stroke-miterlimit:4;stroke-opacity:1"
       d="M 1.6860099,17.051211 C 20.3271,16.779361 24.575345,33.252381 32.587995,46.430101 C 34.765055,49.060641 39.487775,53.886881 44.231255,58.633671 C 48.628715,63.034201 48.865595,68.750661 51.749505,72.543271 C 65.332595,83.772581 59.809085,87.970021 67.432045,93.051211 C 75.671685,101.17093 77.280185,92.246511 88.792995,109.65367 C 101.85616,109.56637 104.43575,104.38527 113.20013,113.06574 C 125.18666,114.48381 127.78515,112.84467 129.51616,126.60945 C 133.26416,131.04485 140.95721,145.28298 143.43205,149.47575 C 150.8643,148.00775 166.36565,151.2508 151.73641,164.08573 C 161.01245,166.11218 172.29704,157.83919 180.26228,166.56533 C 190.57081,176.11485 185.46797,184.72001 183.52173,190.25953 C 184.62246,196.18566 195.02714,195.79657 197.71776,205.24169 C 206.78228,216.88394 215.76059,204.23081 218.57275,208.00144 C 223.36417,210.66858 227.69047,219.37447 229.08284,225.74962 C 229.94119,235.52475 229.51576,245.60712 237.52728,254.702 C 242.22085,265.09683 235.36651,276.05599 242.2795,286.14026 C 248.06365,299.92324 240.20125,303.38111 229.08284,307.42804 C 220.05914,311.30012 225.58445,309.65554 227.80331,318.78486 C 227.15441,325.49875 219.22849,331.77995 214.60665,336.73375 C 211.01565,340.32474 213.1693,346.53459 212.19395,352.41629 C 211.01552,359.52265 218.59093,360.82198 223.05109,360.86073 C 228.92596,360.91178 230.51266,362.84181 233.90195,361.14716 C 235.89387,360.1512 242.70015,348.1023 243.55903,346.38454 C 246.31847,337.26654 252.79954,335.3948 261.57481,332.1216 C 268.44655,322.39451 261.73751,308.27361 270.09871,299.33692 C 276.39975,289.80917 290.303,294.09625 300.25744,292.09883 C 302.77072,290.8594 298.37378,276.1151 302.24991,271.45709 C 298.65327,269.65878 297.83154,262.74262 301.8234,261.31289 C 303.90434,260.56757 285.9588,253.60027 284.85506,247.39073 C 273.78562,241.67392 267.64475,242.85712 270.09871,229.36867 C 270.09871,226.38303 274.24853,219.42991 275.41752,217.09193 C 272.80359,208.23833 284.89502,198.66855 288.12077,189.27271 C 300.82928,178.73 308.956,178.25989 311.11459,188.3528 C 311.2915,192.10125 318.11173,189.66341 323.74467,195.66407 C 327.01545,198.0537 332.34456,195.36336 338.48592,203.51692 C 340.81077,206.60349 345.72214,204.17115 347.87165,211.34661 C 349.56916,218.13666 347.51831,218.29747 347.51831,222.05739 C 347.51831,224.99689 356.37871,226.91922 360.5749,229.36867 C 364.39515,231.59867 358.49936,236.3641 364.88805,234.76693 C 366.01063,234.48628 376.66812,217.34427 376.25744,216.09883 C 374.42502,210.54172 376.62617,209.5421 375.05109,202.82899 C 373.60474,196.66456 371.75075,195.9096 367.813,191.97184 C 358.53888,185.86739 356.09031,177.42898 352.20364,170.69034 C 350.60987,168.34455 342.34287,169.25327 335.24157,164.22581 C 322.68295,155.1098 303.9916,138.97939 294.39462,133.69244 C 276.37018,123.76282 255.65402,118.51418 246.17871,104.68819 C 241.33467,99.509471 249.03029,96.026581 259.38165,84.746841 C 258.25936,77.066931 256.76351,77.450381 250.79712,73.749621 C 239.75753,71.976891 214.82675,77.051491 207.14275,69.430191 C 201.05312,66.621481 181.00543,59.067841 178.26354,47.057311 C 168.7281,38.852651 163.08845,30.177411 158.11521,25.508211 C 155.54575,20.369291 149.08707,15.607344 148.10481,0.42104361 L 1.6860099,0.16232631 L 1.6860099,17.051211 z M 206.94653,333.11452 C 204.58103,333.82079 194.37663,338.16542 189.88618,334.18079 C 182.27403,332.05155 190.88347,342.63903 177.94394,341.85795 C 172.78214,341.85795 173.83907,339.07238 169.62702,338.01936 C 168.5978,337.76206 163.26053,340.34959 159.3908,339.29889 C 154.77887,341.60486 153.59316,345.05676 149.5811,345.69652 C 145.44071,346.58855 135.03358,348.39762 129.74843,345.48328 C 121.52776,347.30826 118.7534,345.65606 113.32785,345.27002 C 109.28543,348.06642 98.547255,346.99387 95.414475,344.41701 C 90.868035,342.14379 90.477095,338.53624 86.884295,336.73984 C 80.232745,337.08279 79.430765,333.47809 77.287845,329.4892 C 77.547255,329.01208 69.191315,330.81286 67.264885,329.9157 C 65.358395,329.43908 64.249105,334.98805 61.507015,335.67357 C 56.926285,337.80466 51.023725,337.27213 49.351515,333.96754 C 45.758935,332.17125 46.648975,329.20617 43.167135,330.98197 C 40.445465,333.70364 33.203205,340.72361 31.011635,342.92422 C 29.430705,353.00952 27.774745,351.84763 27.599565,356.14599 C 28.126575,363.86134 33.511785,366.61596 36.129745,372.56658 C 40.631675,373.00489 46.755205,371.93614 50.204535,372.56658 C 54.443425,371.34531 57.728105,379.99398 58.734715,380.24374 C 64.542505,381.69569 64.429675,378.38275 67.264885,382.16303 C 69.656725,385.35215 75.994905,391.53281 79.207135,394.74505 C 87.324195,403.72336 94.831755,406.06492 102.23861,411.8054 C 111.8088,412.49206 121.32779,408.34513 127.82915,422.04161 C 129.51931,425.42194 131.5837,427.84469 132.94725,430.57179 C 135.0989,434.87508 138.00148,436.87902 141.47743,438.24895 C 142.77137,438.75891 148.48592,444.36853 149.5811,444.64658 C 155.80618,446.22704 161.28256,444.85149 164.72216,447.41889 C 168.20778,450.02064 175.44694,449.2549 174.53186,447.41889 C 171.43511,441.20556 172.39932,439.13971 173.67885,436.32966 C 174.18325,424.73686 184.18182,428.02195 183.48855,422.04162 C 183.48855,419.05131 178.20031,411.55137 181.56926,404.98126 C 183.17457,401.85058 174.74512,407.17903 175.59814,393.89203 C 180.435,382.97069 178.78571,369.50654 188.60665,363.82316 C 189.1324,361.72015 200.00016,346.24528 203.53446,344.417 C 206.10765,341.41851 206.51229,340.41897 206.94653,333.11452 z M 314.00149,0.31857091 C 332.01263,4.4402709 349.05147,20.086061 359.84524,27.099821 C 367.52411,30.067551 370.10368,32.297961 375.31399,37.756071 C 376.33451,37.608471 392.15888,45.816811 402.50149,58.662321 C 415.16741,62.889651 414.71162,74.200521 422.12649,81.693571 C 425.62892,84.734001 427.2478,86.004051 431.50149,85.943571 C 438.03094,85.850731 440.95475,90.052171 440.78274,94.162321 C 440.58521,98.882281 441.92091,102.3664 439.18899,103.88107 C 434.94496,106.2341 433.30833,106.09141 433.22024,110.69357 C 433.08078,117.98001 429.10244,120.82877 431.40774,123.47482 C 432.98054,125.28012 438.66153,122.09982 440.25149,122.09982 C 445.35452,117.07705 460.71692,124.00953 458.81399,133.28732 C 457.62719,138.03453 446.19891,132.95244 445.15774,132.00607 C 437.32167,124.88347 433.88037,131.00966 434.06399,133.72482 C 432.12504,140.80982 435.46392,145.18317 428.93899,154.19357 C 425.40426,160.7875 426.6149,169.45735 426.37649,177.22482 C 427.82743,182.71633 433.01597,180.73586 430.65774,193.44357 C 428.46461,195.6367 423.81399,184.69554 423.81399,194.28732 C 428.65482,206.45206 443.00421,208.29158 452.81399,219.88107 C 455.7,222.76706 456.25149,225.3422 456.25149,230.09982 C 456.25149,231.74135 460.81804,236.63882 461.34524,238.63107 C 463.03415,245.01335 462.53988,245.38805 466.47024,247.16232 C 469.47666,248.51949 470.29954,253.62725 471.59524,254.84982 C 472.4522,255.65841 474.85495,259.41993 475.84524,263.38107 C 476.75752,267.03024 480.78607,268.29065 482.68899,270.19357 C 487.76029,275.59703 488.70086,280.50008 494.62649,284.69357 C 496.6181,287.39727 496.31787,289.57323 498.87649,293.22482 C 500.52163,294.73868 503.58528,300.68267 504.34524,306.34982 C 507.47839,311.37748 510.16102,313.92142 511.15774,321.28732 C 518.03296,323.04163 519.36155,328.90076 524.06399,339.41232 C 525.30989,340.98385 531.66233,340.60517 538.12649,334.19357 C 538.12651,331.99624 543.40202,339.96909 544.00149,340.56857 C 545.16924,341.03928 543.86442,335.62602 586.82639,338.36073 L 586.90129,-0.13777831 L 333.37649,0.38107091 C 339.53651,9.2369909 330.39569,4.0281909 325.72024,0.66232091 C 325.3632,0.57306091 325.03502,0.45460091 324.68899,0.34982091 L 314.00149,0.31857091 z M 586.76154,349.38875 C 581.44421,349.49999 574.53076,343.49407 571.39835,342.71097 C 567.40282,341.50477 563.07875,344.03781 560.9596,346.37288 C 555.15908,349.77256 551.07934,354.65741 543.85194,351.89162 C 539.86746,349.89938 537.9925,349.07641 534.67129,350.73702 C 532.21264,357.34134 532.73022,365.88883 526.24459,369.55515 C 523.82599,369.27718 521.79695,376.01673 523.57762,376.83167 C 531.04823,374.83682 531.38231,380.95119 533.56398,385.31455 C 535.23145,386.68914 539.20606,386.08391 540.83607,387.56313 C 545.91374,393.54622 553.69915,402.38433 556.89705,410.09936 C 557.73549,417.87235 547.73117,418.17865 549.27163,424.74702 C 549.27163,429.49164 551.89846,431.91107 556.04403,433.98386 C 557.75436,435.68972 558.70916,444.18738 559.20626,446.53372 C 565.2344,450.33495 566.97285,457.22972 570.69612,456.21406 C 571.82758,456.49693 573.20787,445.31601 573.20787,444.12102 C 578.40537,422.74514 581.56189,444.0388 586.9079,446.24101 L 586.76154,349.38875 z M 312.92411,6.1940709 C 312.62637,2.5935309 309.89228,3.6098609 306.75228,2.8248609 C 303.26374,1.9527309 300.18706,3.0412609 296.49518,2.0816109 C 293.95101,1.4203009 292.63271,1.4901309 292.87927,2.0052909 C 293.9147,4.1686809 296.58346,6.4186209 299.05109,6.1940709 C 301.75705,5.9478209 303.7195,6.1990309 308.09871,6.1940709 C 311.66815,6.1900209 311.33862,6.8709209 312.92411,6.1940709 z M 331.62252,14.638511 C 330.42886,14.553351 328.80771,14.638511 327.4003,14.638511 C 326.90017,15.740841 328.41202,18.355101 332.50271,19.179541 C 336.38561,18.208811 338.23307,21.799551 339.28084,21.498171 C 342.14169,20.675271 343.91123,25.163131 344.42927,22.863421 C 344.91485,20.707831 344.06556,20.733061 343.32955,19.890421 C 341.06516,17.297971 338.58557,16.766441 337.05109,16.448041 C 334.74217,15.968941 334.65566,17.083851 331.62252,14.638511 z M 464.32093,263.74962 C 467.73316,264.24228 456.24394,256.08593 455.12252,252.2893 C 454.35782,250.16746 454.89687,244.34211 455.27332,242.63851 C 455.97833,239.06723 455.82283,238.9658 454.21776,237.36073 C 452.03657,235.17954 449.75751,236.92424 447.88443,236.45597 C 445.88621,235.95641 448.76007,234.19406 443.813,234.19406 C 441.77827,234.19406 440.49554,237.38492 440.49554,239.01946 C 440.49554,242.63418 440.27142,243.92233 442.00347,245.65438 C 446.50878,249.84963 449.551,253.9341 454.06697,257.71788 C 456.0964,260.84388 460.89243,260.57269 464.32093,263.74962 z M 491.76538,305.36867 C 491.76538,307.31084 492.18007,312.75754 491.46379,315.62264 C 490.49771,319.48698 491.18308,320.07627 492.67014,320.14645 C 496.82238,320.34239 497.12504,320.81852 499.30506,318.63851 C 501.12049,316.82309 500.96379,316.17842 500.96379,311.40042 C 500.96379,309.37421 499.6138,305.37821 498.70189,304.16232 C 496.66834,304.86229 493.91085,303.94709 491.76538,305.36867 z M 496.28919,333.1147 C 497.69788,335.93208 497.30028,336.69441 498.09871,339.90041 C 498.4003,341.11141 498.78541,342.31312 501.26538,342.31312 C 505.19314,342.31312 503.8849,337.99613 503.0749,337.18613 C 501.0089,335.12013 500.74062,334.55026 498.70189,332.51153 C 498.1836,327.48863 494.16951,329.93178 496.28919,333.1147 z M 489.20189,332.05915 C 489.75071,331.25082 494.34009,337.98498 495.08284,340.95597 C 495.00807,347.74137 500.62096,344.5524 502.92411,353.01946 C 504.68192,356.53508 505.95495,354.76908 505.93998,359.05121 C 505.92697,362.77185 504.25408,361.38172 501.56697,360.70994 C 493.3476,354.53757 487.85975,360.91954 486.03522,352.41629 C 485.23334,349.20875 481.62521,351.51432 481.20982,348.94804 C 480.53238,344.76274 479.31313,338.43957 483.32094,339.29724 C 484.05233,339.45376 484.75011,341.60673 487.09077,339.90041 C 488.1882,339.1004 489.50907,335.36541 489.20189,332.05915 z M 497.94792,370.36074 C 498.93076,370.07768 503.0161,374.99463 505.78919,373.97978 C 508.44919,373.00631 509.5823,375.39085 510.76538,377.74962 C 512.31869,380.84656 514.924,381.52297 515.59078,381.97184 C 518.6689,384.04399 517.52127,386.13843 516.19395,387.40042 C 513.22609,390.22221 511.47632,387.85217 507.74951,389.96391 C 504.3374,385.01568 499.58286,382.92346 496.28919,380.16232 C 494.83542,377.25478 495.1855,376.8866 495.83681,374.28137 C 496.21767,372.75794 496.72171,371.3417 497.94792,370.36074 z "
       sodipodi:nodetypes="ccscccccccccccccccccssscccccsccccccscssssscccsccccccccccccsccccccccccccccccscccsssssccscccccccccsssssccsccccccsssssccccccccccccccccccccccccccccccccsssssccccssssccccssssccccsssscccssscccccsccsssccssssccsc" />
  </g>
  <g
     inkscape:groupmode="layer"
     id="layer5"
     inkscape:label="Rivers"
     style="display:inline"
     sodipodi:insensitive="true"
     transform="translate(0.3734912,2.0580935)">
    <path
       id="path9030"
       style="fill:none;fill-rule:evenodd;stroke:#0ad1ff;stroke-width:1.60000002;stroke-linecap:round;stroke-linejoin:miter;stroke-miterlimit:4;stroke-dasharray:none;stroke-opacity:1"
       d="M 584.31713,417.6142 C 581.94038,415.13908 580.60737,411.08013 579.25076,408.03291 C 577.44751,403.98243 574.55293,401.21637 571.52186,399.70083 C 568.64925,398.26452 566.16255,396.04755 563.8447,393.72971 C 560.18557,393.72317 552.38133,395.15703 546.43102,394.53098 M 535.05535,267.69634 C 534.41057,273.88198 537.61992,273.67298 539.32044,275.58675 C 540.34145,277.88729 539.10719,283.80718 539.10719,287.95551 C 539.40878,290.79136 541.42107,291.90371 542.41578,295.88252 C 543.66338,300.87295 542.44275,303.46286 540.81322,306.7219 C 536.08468,310.8814 534.98693,318.18661 533.98908,326.34131 C 533.75481,330.90925 530.94523,334.1 527.16494,339.13657 M 518.63476,240.18652 C 517.60596,241.21533 518.46177,247.39691 516.92873,251.06249 C 517.12632,254.91674 517.89313,258.53591 518.84802,261.72521 C 521.01914,266.06746 519.34434,266.91696 517.78175,270.04214 C 515.97526,273.65512 517.61701,275.78084 517.78175,281.13137 C 518.56839,284.49117 515.99733,285.66621 517.56849,288.80853 C 519.3143,290.5941 523.32636,290.1251 523.32636,296.27243 C 520.52846,301.78083 517.37969,302.54727 511.81062,299.04474 C 507.4353,297.59678 505.14548,298.68107 503.70695,301.81705 M 497.52258,160.64262 C 493.34051,160.52379 491.10283,164.50332 488.9924,166.61375 C 481.37403,169.32726 477.09655,164.82428 475.98388,164.26795 C 469.6678,162.93697 467.5352,150.46552 464.04163,152.32569 C 459.72266,153.34611 459.76052,158.90532 456.36447,161.06912 C 452.76768,162.66103 451.24235,159.99883 448.68731,159.14984 C 446.70405,160.57864 439.54643,166.15818 439.30412,166.40049 C 432.18696,165.18532 435.70952,160.77512 428.00164,159.57635 M 478.54293,134.41233 C 472.00519,140.52973 468.70729,140.54987 466.81393,141.02321 C 463.52732,142.1182 461.68232,142.97411 458.92353,143.79552 C 455.01771,146.54291 448.66368,143.24292 446.98128,142.9425 C 441.48533,146.94818 438.37028,144.03946 434.18601,144.64854 M 516.92873,98.585582 C 516.72938,98.685258 516.98686,88.581912 516.28896,85.790317 C 516.58785,82.634871 522.81662,83.121273 522.89985,77.260139 C 523.78117,74.672788 522.76621,70.895917 528.01796,69.58298 C 530.85344,69.353932 535.53299,70.964761 537.40115,74.701086 C 545.04155,79.227866 551.35884,80.879205 556.16754,84.937299 C 559.6471,86.677076 561.78834,90.207774 563.8447,94.320493 C 566.41187,104.28688 567.15559,102.3491 574.93393,111.38085 C 578.36772,115.16969 580.61097,117.31216 586.22125,117.05038 M 519.27453,122.68333 C 521.67092,127.57205 525.73184,132.03916 532.92281,128.65445 C 537.90127,129.89907 537.38452,130.1306 539.96021,132.70629 C 540.80511,133.5512 540.3028,139.02 542.51926,141.23646 C 545.60689,144.32409 544.26732,148.49763 548.49039,149.55339 C 551.04056,149.41447 554.04124,142.16507 555.31453,138.67741 C 558.91689,132.67049 566.6861,130.19134 567.25677,121.61706 C 569.1874,114.71871 570.80911,110.51299 574.93393,111.38085 M 122.19479,362.80782 C 115.89862,365.81402 122.84235,374.14152 121.12851,379.22841 C 119.14461,383.66155 118.28495,386.33706 116.86343,387.75858 C 114.41082,390.21119 113.39555,393.09992 112.59834,396.28876 C 112.18561,402.77979 113.04037,407.54192 107.90674,411.64308 M 138.18887,369.20545 C 139.72989,371.78479 143.12807,373.15924 146.9323,374.1103 C 151.03692,373.94149 154.52098,373.7267 158.66129,377.52237 C 159.59672,377.99009 163.9922,386.47814 164.63242,387.75858 C 164.07694,392.04829 169.40309,396.64675 175.08188,397.78155 M 282.56211,272.17468 C 280.48221,270.69506 274.93759,267.28299 270.61986,266.20356 C 264.52936,264.68093 264.9524,261.92572 266.14152,258.95291 C 271.3692,256.75303 285.92788,250.35255 277.23075,243.59859 M 235.43289,160.00286 C 234.76203,157.31944 244.60088,156.59079 248.22815,156.59079 C 249.75937,156.59079 251.07154,157.72814 252.49324,158.29682 C 256.17078,159.76784 258.11679,162.42759 260.1704,164.4812 C 263.75825,167.65299 266.18949,168.55838 269.76685,169.59931 C 273.31159,169.59931 276.8756,178.41409 278.08377,179.62226 C 282.10983,182.91158 285.95637,185.70166 290.87904,187.29942 M 202.1652,123.3231 C 202.20322,117.90027 202.6891,111.13065 202.16519,110.10132 C 198.20977,99.937877 198.63632,97.713217 204.72425,88.349369 C 206.32434,85.149187 208.2409,81.959943 208.98934,78.966175 C 209.70455,76.105343 210.69537,74.131978 210.69537,72.142033 M 191.92898,145.50156 C 192.95418,141.40076 188.68909,137.66011 187.66389,133.55931 C 184.06008,129.54531 178.0911,122.21393 177.64094,122.47007 C 168.8158,121.64007 168.60576,120.27302 161.22035,122.47008 C 157.66942,124.24554 155.67951,125.24049 152.69017,126.73517 C 149.04923,128.55564 145.98037,125.39847 141.60094,127.58819 C 138.63551,129.70962 136.8159,131.65554 132.85751,131.42676 M 134.7768,64.464874 C 133.55621,58.98228 133.71178,47.308275 142.88047,42.926177 C 144.40331,41.295667 148.92734,41.367454 153.54319,39.72736 C 153.31738,36.103912 157.10668,27.562844 159.94083,28.424876 M 58.858222,0.91505467 C 58.008587,4.1104879 58.858221,6.711006 58.858221,10.938013 C 58.858221,16.138381 58.423976,18.289488 61.417274,20.534462 C 63.176614,21.427457 66.535381,23.532917 66.535381,28.63813 C 66.535381,30.812387 73.359523,31.119948 73.359523,37.168307 C 73.359523,41.052791 71.769641,45.03967 70.373961,47.831029 C 68.461099,51.656754 66.690118,52.756696 65.682363,56.787714 C 64.930582,59.794838 61.740662,62.038228 58.858222,62.758838 C 54.736414,63.560962 51.074724,68.089619 50.328045,69.58298"
       sodipodi:nodetypes="ccccccccccccccccccccccccccccccccccccccccccccccccccccccccccccccccccccccccccccccccccccccccccccccccc" />
  </g>
  <g
     inkscape:groupmode="layer"
     id="layer6"
     inkscape:label="Cities"
     style="display:inline"
     sodipodi:insensitive="true"
     transform="translate(0.3734912,2.0580935)">
    <path
       style="opacity:1;fill:#000000;fill-opacity:1;fill-rule:nonzero;stroke:none;stroke-width:1.60000002;stroke-linecap:round;stroke-miterlimit:4;stroke-dasharray:none;stroke-dashoffset:0;stroke-opacity:0.24736843;display:inline"
       d="M 60.31051,62.124753 C 57.646208,62.124753 55.489833,64.281132 55.489833,66.945435 C 55.489833,69.609738 57.646208,71.780011 60.31051,71.780009 C 62.974812,71.780009 65.145085,69.609738 65.145085,66.945435 C 65.145085,64.281132 62.974812,62.124751 60.31051,62.124753 z M 60.31051,64.54204 C 61.642665,64.54204 62.727798,65.613284 62.727798,66.945435 C 62.727798,68.277585 61.642665,69.362722 60.31051,69.362722 C 58.978363,69.362724 57.90712,68.277586 57.90712,66.945435 C 57.90712,65.613282 58.978363,64.54204 60.31051,64.54204 z "
       id="path12958" />
    <path
       style="opacity:1;fill:#000000;fill-opacity:1;fill-rule:nonzero;stroke:none;stroke-width:1.60000002;stroke-linecap:round;stroke-miterlimit:4;stroke-dasharray:none;stroke-dashoffset:0;stroke-opacity:0.24736843;display:inline"
       d="M 229.1994,118.21999 C 226.5351,118.21999 224.37872,120.37637 224.37872,123.04067 C 224.37872,125.70498 226.5351,127.87525 229.1994,127.87525 C 231.8637,127.87525 234.03398,125.70498 234.03398,123.04067 C 234.03398,120.37637 231.8637,118.21999 229.1994,118.21999 z M 229.1994,120.63728 C 230.53156,120.63728 231.61669,121.70852 231.61669,123.04067 C 231.61669,124.37282 230.53156,125.45796 229.1994,125.45796 C 227.86725,125.45796 226.79601,124.37282 226.79601,123.04067 C 226.79601,121.70852 227.86725,120.63728 229.1994,120.63728 z "
       id="path12960" />
    <path
       style="opacity:1;fill:#000000;fill-opacity:1;fill-rule:nonzero;stroke:none;stroke-width:1.60000002;stroke-linecap:round;stroke-miterlimit:4;stroke-dasharray:none;stroke-dashoffset:0;stroke-opacity:0.24736843;display:inline"
       d="M 177.92956,126.06126 C 175.26526,126.06126 173.10888,128.21764 173.10888,130.88194 C 173.10888,133.54625 175.26526,135.71652 177.92956,135.71652 C 180.59386,135.71652 182.76413,133.54625 182.76413,130.88194 C 182.76413,128.21764 180.59386,126.06126 177.92956,126.06126 z M 177.92956,128.47855 C 179.26171,128.47855 180.34685,129.54979 180.34685,130.88194 C 180.34685,132.21409 179.26171,133.29923 177.92956,133.29923 C 176.59741,133.29923 175.52617,132.21409 175.52617,130.88194 C 175.52617,129.54979 176.59741,128.47855 177.92956,128.47855 z "
       id="path12962" />
    <path
       style="opacity:1;fill:#000000;fill-opacity:1;fill-rule:nonzero;stroke:none;stroke-width:1.60000002;stroke-linecap:round;stroke-miterlimit:4;stroke-dasharray:none;stroke-dashoffset:0;stroke-opacity:0.24736843;display:inline"
       d="M 302.7867,171.90253 C 300.1224,171.90253 297.96602,174.05891 297.96602,176.72321 C 297.96602,179.38752 300.1224,181.55779 302.7867,181.55779 C 305.451,181.55779 307.62128,179.38752 307.62128,176.72321 C 307.62128,174.05891 305.451,171.90253 302.7867,171.90253 z M 302.7867,174.31982 C 304.11886,174.31982 305.20399,175.39106 305.20399,176.72321 C 305.20399,178.05536 304.11886,179.1405 302.7867,179.1405 C 301.45455,179.1405 300.38331,178.05536 300.38331,176.72321 C 300.38331,175.39106 301.45455,174.31982 302.7867,174.31982 z "
       id="path12964" />
    <path
       style="opacity:1;fill:#000000;fill-opacity:1;fill-rule:nonzero;stroke:none;stroke-width:1.60000002;stroke-linecap:round;stroke-miterlimit:4;stroke-dasharray:none;stroke-dashoffset:0;stroke-opacity:0.24736843;display:inline"
       d="M 268.40575,208.09301 C 265.74145,208.09301 263.58507,210.24939 263.58507,212.91369 C 263.58507,215.57799 265.74145,217.74826 268.40575,217.74826 C 271.07005,217.74826 273.24032,215.57799 273.24032,212.91369 C 273.24032,210.24939 271.07005,208.093 268.40575,208.09301 z M 268.40575,210.51029 C 269.7379,210.51029 270.82304,211.58154 270.82304,212.91369 C 270.82304,214.24584 269.7379,215.33098 268.40575,215.33098 C 267.0736,215.33098 266.00236,214.24584 266.00236,212.91369 C 266.00236,211.58154 267.0736,210.51029 268.40575,210.51029 z "
       id="path12966" />
    <path
       style="opacity:1;fill:#000000;fill-opacity:1;fill-rule:nonzero;stroke:none;stroke-width:1.60000002;stroke-linecap:round;stroke-miterlimit:4;stroke-dasharray:none;stroke-dashoffset:0;stroke-opacity:0.24736843;display:inline"
       d="M 40.009551,337.99508 C 37.345249,337.99508 35.188874,340.15146 35.188874,342.81576 C 35.188874,345.48006 37.345249,347.65034 40.009551,347.65033 C 42.673853,347.65033 44.844126,345.48006 44.844126,342.81576 C 44.844126,340.15146 42.673853,337.99508 40.009551,337.99508 z M 40.009551,340.41237 C 41.341706,340.41237 42.426839,341.48361 42.426839,342.81576 C 42.426839,344.14791 41.341706,345.23305 40.009551,345.23305 C 38.677404,345.23305 37.606161,344.14791 37.606161,342.81576 C 37.606161,341.48361 38.677404,340.41237 40.009551,340.41237 z "
       id="path16864" />
  </g>
  <g
     inkscape:groupmode="layer"
     id="layer7"
     inkscape:label="Movements"
     sodipodi:insensitive="true"
     transform="translate(0.3734912,2.0580935)">
    <path
       style="fill:#000000;fill-opacity:1;fill-rule:nonzero;stroke:#ffffff;stroke-width:1;stroke-linecap:round;stroke-miterlimit:4;stroke-dasharray:none;stroke-dashoffset:0;stroke-opacity:1"
       d="M 307.9394,193.44504 L 326.63561,194.67415 L 320.73481,198.88752 C 360.1279,272.39512 460.26179,287.63717 476.29467,263.79787 C 462.706,287.38415 349.45681,294.47828 308.93321,207.31426 L 303.03241,211.52763 L 307.9394,193.44504 z "
       id="path12972"
       sodipodi:nodetypes="ccccccc"
       inkscape:transform-center-y="39.014995"
       inkscape:transform-center-x="-26.27799" />
    <path
       style="fill:#000000;fill-opacity:1;fill-rule:nonzero;stroke:#ffffff;stroke-width:1;stroke-linecap:round;stroke-miterlimit:4;stroke-dasharray:none;stroke-dashoffset:0;stroke-opacity:1"
       d="M 268.70058,203.93328 L 260.80566,186.1557 L 266.6012,187.59309 C 268.84108,167.15492 293.33781,165.7832 302.86754,176.63019 C 286.11227,172.71258 281.14402,178.38514 278.19227,190.46788 L 283.98779,191.90527 L 268.70058,203.93328 z "
       id="path12974"
       sodipodi:nodetypes="ccccccc"
       inkscape:transform-center-y="-60.994026"
       inkscape:transform-center-x="-10.57697" />
    <path
       style="fill:#000000;fill-opacity:1;fill-rule:nonzero;stroke:#ffffff;stroke-width:1;stroke-linecap:round;stroke-miterlimit:4;stroke-dasharray:none;stroke-dashoffset:0;stroke-opacity:1"
       d="M 70.800476,67.023933 L 89.323744,61.085871 L 87.271653,66.693305 C 111.18793,69.365928 142.58145,103.81539 175.47063,138.7763 C 201.83855,166.80518 235.71619,197.14454 265.08437,211.30725 C 229.3107,202.48405 184.62944,166.54706 161.30919,143.29344 C 134.43433,116.49536 115.10096,91.321611 83.167474,77.908164 L 81.115386,83.515588 L 70.800476,67.023933 z "
       id="path12976"
       sodipodi:nodetypes="cccscsccc"
       inkscape:transform-center-y="18.028152"
       inkscape:transform-center-x="-59.079172" />
    <path
       style="fill:#000000;fill-opacity:1;fill-rule:nonzero;stroke:#ffffff;stroke-width:1;stroke-linecap:round;stroke-miterlimit:4;stroke-dasharray:none;stroke-dashoffset:0;stroke-opacity:1"
       d="M 227.49063,116.64129 L 211.07863,113.32245 L 216.23176,110.09996 C 186.64898,75.577803 97.354963,48.306306 67.772184,61.979654 C 102.92293,37.201298 202.04999,68.722116 226.53801,103.65501 L 231.69112,100.43254 L 227.49063,116.64129 z "
       id="path15885"
       sodipodi:nodetypes="ccccccc"
       inkscape:transform-center-y="-51.639256"
       inkscape:transform-center-x="30.89485" />
    <path
       style="fill:#000000;fill-opacity:1;fill-rule:nonzero;stroke:#ffffff;stroke-width:1;stroke-linecap:round;stroke-miterlimit:4;stroke-dasharray:none;stroke-dashoffset:0;stroke-opacity:1"
       d="M 203.65168,368.46319 L 204.59834,351.74577 L 208.52215,356.3872 C 218.09318,348.99831 255.79504,327.799 261.1164,298.23979 C 265.38564,274.52492 255.70318,252.03622 251.33903,225.51803 C 244.62506,184.72141 245.81278,147.83929 234.18699,128.02943 C 250.8577,143.77546 249.77668,183.54373 256.81881,223.5867 C 261.65384,251.07964 274.98887,275.5827 269.74865,301.01284 C 263.52001,331.23966 224.99379,357.34472 216.36976,365.67005 L 220.29355,370.31147 L 203.65168,368.46319 z "
       id="path16856"
       sodipodi:nodetypes="cccsscssccc"
       inkscape:transform-center-y="-39.09173"
       inkscape:transform-center-x="-46.4114" />
    <path
       style="fill:#000000;fill-opacity:1;fill-rule:nonzero;stroke:#ffffff;stroke-width:1;stroke-linecap:round;stroke-miterlimit:4;stroke-dasharray:none;stroke-dashoffset:0;stroke-opacity:1"
       d="M 44.69546,347.83455 L 60.23495,354.07092 L 54.58342,356.30681 C 75.007211,386.18808 176.37981,376.56509 198.61313,366.03367 C 180.4534,388.91283 59.453899,397.40674 43.28035,360.7786 L 37.62882,363.01449 L 44.69546,347.83455 z "
       id="path16858"
       sodipodi:nodetypes="ccccccc"
       inkscape:transform-center-y="56.76107"
       inkscape:transform-center-x="-19.56363" />
    <path
       style="fill:#000000;fill-opacity:1;fill-rule:nonzero;stroke:#ffffff;stroke-width:1;stroke-linecap:round;stroke-miterlimit:4;stroke-dasharray:none;stroke-dashoffset:0;stroke-opacity:1"
       d="M 199.75668,350.13964 L 189.56947,363.42832 L 188.93652,357.38361 C 159.5247,361.9964 96.25456,365.56695 57.191934,346.00989 C 95.479258,355.43222 160.49028,353.33363 187.67062,345.29421 L 187.03767,339.24951 L 199.75668,350.13964 z "
       id="path16860"
       sodipodi:nodetypes="ccccccc"
       inkscape:transform-center-y="1.52913"
       inkscape:transform-center-x="60.882251" />
    <path
       style="fill:#000000;fill-opacity:1;fill-rule:nonzero;stroke:#ffffff;stroke-width:0.99999994;stroke-linecap:round;stroke-miterlimit:4;stroke-dasharray:none;stroke-dashoffset:0;stroke-opacity:1"
       d="M 185.02134,133.16284 L 200.68623,127.24845 L 198.03491,132.71741 C 207.68556,137.93685 238.85721,148.41413 240.38025,173.54616 C 242.93256,224.61555 265.64125,267.65448 255.14654,298.57274 C 248.34152,319.41087 233.16074,336.8651 205.65065,346.76761 C 228.72207,334.26422 241.89098,316.77445 248.11437,297.23835 C 257.20071,264.17593 235.96737,246.20327 231.54833,179.18366 C 230.40942,159.64576 202.58115,147.6514 192.73227,143.65535 L 190.08096,149.12431 L 185.02134,133.16284 z "
       id="path16862"
       sodipodi:nodetypes="ccccccccccc"
       inkscape:transform-center-y="23.237915"
       inkscape:transform-center-x="-55.39948" />
  </g>
  <g
     inkscape:groupmode="layer"
     id="layer1"
     inkscape:label="Epir"
     style="display:inline"
     sodipodi:insensitive="true"
     transform="translate(0.3734912,2.0580935)">
    <path
       style="fill:#d40000;fill-opacity:0.26315792;fill-rule:evenodd;stroke:none;stroke-width:1.60000002;stroke-linecap:butt;stroke-linejoin:miter;stroke-miterlimit:4;stroke-dasharray:none;stroke-opacity:0.43684214"
       d="M 426.42013,177.19935 C 427.87107,182.69086 433.05961,180.71039 430.70138,193.4181 C 428.50825,195.61123 423.85763,184.67007 423.85763,194.26185 C 428.69846,206.42659 443.04785,208.26611 452.85763,219.8556 C 455.74364,222.74159 456.29513,225.31673 456.29513,230.07435 C 456.29513,231.71588 460.86168,236.61335 461.38888,238.6056 C 463.07779,244.98788 462.58352,245.36258 466.51388,247.13685 C 469.5203,248.49402 470.34318,253.60178 471.63888,254.82435 C 472.49584,255.63294 474.89859,259.39446 475.88888,263.3556 C 476.80116,267.00477 480.82971,268.26518 482.73263,270.1681 C 487.80393,275.57156 488.7445,280.47461 494.67013,284.6681 C 496.66174,287.3718 496.36151,289.54776 498.92013,293.19935 C 500.56527,294.71321 503.62892,300.6572 504.38888,306.32435 C 507.52203,311.35201 510.20466,313.89595 511.20138,321.26185 C 518.0766,323.01616 519.40519,328.87529 524.10763,339.38685 C 525.35353,340.95838 531.70597,340.5797 538.17013,334.1681 C 538.17015,331.97077 543.44566,339.94362 544.04513,340.5431 C 544.84801,340.86673 545.05232,338.55149 559.06474,337.96188 C 565.43277,337.69393 575.85893,323.0046 579.63194,306.6686 C 580.29228,287.59507 566.92334,281.57634 537.5958,241.84241 C 522.75802,220.91826 523.09272,181.79693 498.86969,176.41145 C 491.76772,170.11304 429.10852,184.27051 426.42013,177.19935 z "
       id="path6070"
       sodipodi:nodetypes="cccccccccccccccccccccc" />
  </g>
  <g
     inkscape:groupmode="layer"
     id="layer2"
     inkscape:label="Names"
     style="display:inline"
     transform="translate(0.3734912,2.0580935)">
    <text
       xml:space="preserve"
       style="font-size:19.67592049px;font-style:normal;font-weight:normal;fill:#0ad1ff;fill-opacity:1;stroke:none;stroke-width:1px;stroke-linecap:butt;stroke-linejoin:miter;stroke-opacity:1;font-family:Times New Roman"
       x="287.75461"
       y="375.76437"
       id="text8031"><tspan
         sodipodi:role="line"
         id="tspan8033"
         x="287.75461"
         y="375.76437">Ionian Sea</tspan></text>
    <text
       xml:space="preserve"
       style="font-size:28.09139061px;font-style:normal;font-weight:normal;fill:#000000;fill-opacity:1;stroke:none;stroke-width:1px;stroke-linecap:butt;stroke-linejoin:miter;stroke-opacity:1;font-family:Times New Roman"
       x="379.24881"
       y="-318.31845"
       id="text9025"
       transform="matrix(0.4548834,0.890551,-0.890551,0.4548834,0,0)"><tspan
         sodipodi:role="line"
         id="tspan9027"
         x="379.24881"
         y="-318.31845">EPIRUS</tspan></text>
    <path
       style="fill:none;fill-rule:evenodd;stroke:none;stroke-width:1px;stroke-linecap:butt;stroke-linejoin:miter;stroke-opacity:1"
       d="M 256.75833,51.669608 C 257.04267,51.669608 263.29813,55.081679 263.58247,55.081679 C 392.53907,105.2094 335.87609,156.95954 399.21229,183.88735"
       id="path17835"
       sodipodi:nodetypes="ccc" />
    <text
       xml:space="preserve"
       style="font-size:19.67592049px;font-style:normal;font-weight:normal;fill:#0ad1ff;fill-opacity:1;stroke:none;stroke-width:1px;stroke-linecap:butt;stroke-linejoin:miter;stroke-opacity:1;display:inline;font-family:Times New Roman"
       x="20.110012"
       y="244.3094"
       id="text18813"><tspan
         sodipodi:role="line"
         id="tspan18815"
         x="20.110012"
         y="244.3094">Tyrrhenian Sea</tspan></text>
    <text
       xml:space="preserve"
       style="font-size:14.20712376px;font-style:normal;font-weight:normal;fill:#000000;fill-opacity:1;stroke:none;stroke-width:1px;stroke-linecap:butt;stroke-linejoin:miter;stroke-opacity:1;font-family:Times New Roman"
       x="29.228464"
       y="85.667961"
       id="text18817"><tspan
         sodipodi:role="line"
         id="tspan18819"
         x="29.228464"
         y="85.667961">ROME</tspan></text>
    <text
       xml:space="preserve"
       style="font-size:14.20712376px;font-style:normal;font-weight:normal;fill:#000000;fill-opacity:1;stroke:none;stroke-width:1px;stroke-linecap:butt;stroke-linejoin:miter;stroke-opacity:1;display:inline;font-family:Times New Roman"
       x="81.893044"
       y="143.68735"
       id="text18821"><tspan
         sodipodi:role="line"
         id="tspan18823"
         x="81.893044"
         y="143.68735">Beneventum</tspan></text>
    <text
       xml:space="preserve"
       style="font-size:14.20712376px;font-style:normal;font-weight:normal;fill:#000000;fill-opacity:1;stroke:none;stroke-width:1px;stroke-linecap:butt;stroke-linejoin:miter;stroke-opacity:1;display:inline;font-family:Times New Roman"
       x="312.41226"
       y="184.22849"
       id="text18829"><tspan
         sodipodi:role="line"
         id="tspan18831"
         x="312.41226"
         y="184.22849">Tarentum</tspan></text>
    <text
       xml:space="preserve"
       style="font-size:14.20712376px;font-style:normal;font-weight:normal;fill:#000000;fill-opacity:1;stroke:none;stroke-width:1px;stroke-linecap:butt;stroke-linejoin:miter;stroke-opacity:1;display:inline;font-family:Times New Roman"
       x="29.210384"
       y="327.53546"
       id="text18833"><tspan
         sodipodi:role="line"
         id="tspan18835"
         x="29.210384"
         y="327.53546">Eryx</tspan></text>
    <text
       xml:space="preserve"
       style="font-size:14.20712376px;font-style:normal;font-weight:normal;fill:#000000;fill-opacity:1;stroke:none;stroke-width:1px;stroke-linecap:butt;stroke-linejoin:miter;stroke-opacity:1;display:inline;font-family:Times New Roman"
       x="238.46236"
       y="127.92931"
       id="text18841"><tspan
         sodipodi:role="line"
         id="tspan18843"
         x="238.46236"
         y="127.92931">Asculum</tspan></text>
    <text
       xml:space="preserve"
       style="font-size:14.20712376px;font-style:normal;font-weight:normal;fill:#000000;fill-opacity:1;stroke:none;stroke-width:1px;stroke-linecap:butt;stroke-linejoin:miter;stroke-opacity:1;display:inline;font-family:Times New Roman"
       x="271.26123"
       y="235.40953"
       id="text18845"><tspan
         sodipodi:role="line"
         id="tspan18847"
         x="271.26123"
         y="235.40953">Heraclea</tspan></text>
    <rect
       y="-1.2580935"
       x="0.42650881"
       height="462.0835"
       width="587.82391"
       id="rect20787"
       style="opacity:1;fill:none;fill-opacity:1;fill-rule:nonzero;stroke:#000000;stroke-width:1.60000002;stroke-linecap:round;stroke-miterlimit:4;stroke-dasharray:none;stroke-dashoffset:0;stroke-opacity:1;display:inline" />
    <text
       xml:space="preserve"
       style="font-size:14px;font-style:italic;font-weight:normal;fill:#000000;fill-opacity:1;stroke:none;stroke-width:1px;stroke-linecap:butt;stroke-linejoin:miter;stroke-opacity:1;font-family:Times New Roman"
       x="370.94647"
       y="247.36"
       id="text22734"><tspan
         sodipodi:role="line"
         id="tspan22736"
         x="370.94647"
         y="247.36">280 B.C.</tspan></text>
    <text
       xml:space="preserve"
       style="font-size:14px;font-style:italic;font-weight:normal;fill:#000000;fill-opacity:1;stroke:none;stroke-width:1px;stroke-linecap:butt;stroke-linejoin:miter;stroke-opacity:1;display:inline;font-family:Times New Roman"
       x="172.94389"
       y="230.06818"
       id="text22738"><tspan
         sodipodi:role="line"
         id="tspan22740"
         x="172.94389"
         y="230.06818">275 B.C.</tspan></text>
    <text
       xml:space="preserve"
       style="font-size:14px;font-style:italic;font-weight:normal;fill:#000000;fill-opacity:1;stroke:none;stroke-width:1px;stroke-linecap:butt;stroke-linejoin:miter;stroke-opacity:1;display:inline;font-family:Times New Roman"
       x="220.05861"
       y="91.056427"
       id="text22742"><tspan
         sodipodi:role="line"
         id="tspan22744"
         x="220.05861"
         y="91.056427">279 B.C.</tspan></text>
    <text
       xml:space="preserve"
       style="font-size:14px;font-style:italic;font-weight:normal;fill:#000000;fill-opacity:1;stroke:none;stroke-width:1px;stroke-linecap:butt;stroke-linejoin:miter;stroke-opacity:1;display:inline;font-family:Times New Roman"
       x="12.940433"
       y="389.60516"
       id="text22746"><tspan
         sodipodi:role="line"
         id="tspan22748"
         x="12.940433"
         y="389.60516">277 B.C.</tspan></text>
    <text
       xml:space="preserve"
       style="font-size:19.67592049px;font-style:normal;font-weight:normal;fill:#0ad1ff;fill-opacity:1;stroke:none;stroke-width:1px;stroke-linecap:butt;stroke-linejoin:miter;stroke-opacity:1;display:inline;font-family:Times New Roman"
       x="272.94193"
       y="-92.701035"
       id="text2549"
       transform="matrix(0.8660254,0.5,-0.5,0.8660254,0,0)"><tspan
         sodipodi:role="line"
         id="tspan2551"
         x="272.94193"
         y="-92.701035">Adriatic Sea</tspan></text>
  </g>
  <g
     inkscape:groupmode="layer"
     id="layer8"
     inkscape:label="Frame"
     sodipodi:insensitive="true"
     transform="translate(0.3734912,2.0580935)" />
</svg>
