<?xml version="1.0" encoding="UTF-8" standalone="no"?>
<!-- Creator: CorelDRAW -->
<svg xmlns:dc="http://purl.org/dc/elements/1.1/" xmlns:cc="http://creativecommons.org/ns#" xmlns:rdf="http://www.w3.org/1999/02/22-rdf-syntax-ns#" xmlns:svg="http://www.w3.org/2000/svg" xmlns="http://www.w3.org/2000/svg" xmlns:sodipodi="http://sodipodi.sourceforge.net/DTD/sodipodi-0.dtd" xmlns:inkscape="http://www.inkscape.org/namespaces/inkscape" xml:space="preserve" width="657.32861" height="619.62128" style="fill-rule:evenodd" viewBox="0 0 7303.6512 6885.5956" id="svg2" version="1.1" inkscape:version="0.91 r13725" sodipodi:docname="Battle_of_Anchialos_(917)_es.svg"><metadata id="metadata161"><rdf:RDF><cc:Work rdf:about=""><dc:format>image/svg+xml</dc:format><dc:type rdf:resource="http://purl.org/dc/dcmitype/StillImage"/><dc:title/></cc:Work></rdf:RDF></metadata><sodipodi:namedview pagecolor="#ffffff" bordercolor="#666666" borderopacity="1" objecttolerance="10" gridtolerance="10" guidetolerance="10" inkscape:pageopacity="0" inkscape:pageshadow="2" inkscape:window-width="1280" inkscape:window-height="734" id="namedview159" showgrid="false" inkscape:zoom="0.8731512" inkscape:cx="329.5973" inkscape:cy="311.08791" inkscape:window-x="0" inkscape:window-y="27" inkscape:window-maximized="1" inkscape:current-layer="Layer 1"/><defs id="defs4"><inkscape:perspective sodipodi:type="inkscape:persp3d" inkscape:vp_x="0 : 338.715 : 1" inkscape:vp_y="0 : 1000 : 0" inkscape:vp_z="649.26001 : 338.715 : 1" inkscape:persp3d-origin="324.63 : 225.81 : 1" id="perspective163"/><style type="text/css" id="style6">
   
    .str0 {stroke:#0093DD;stroke-width:28}
    .fil8 {fill:none}
    .fil7 {fill:#0093DD}
    .fil3 {fill:#1F1A17}
    .fil5 {fill:#838281}
    .fil6 {fill:#8E84B7}
    .fil9 {fill:#FFFFFF}
    .fil2 {fill:url(#id0)}
    .fil1 {fill:url(#id1)}
    .fil4 {fill:url(#id2)}
    .fil0 {fill:url(#id3)}
   
  </style><linearGradient id="id0" gradientUnits="userSpaceOnUse" x1="-10" y1="3352" x2="7270" y2="3352"><stop offset="0" style="stop-color:#75C5F0" id="stop9"/><stop offset="1" style="stop-color:#B1D1E0" id="stop11"/></linearGradient><linearGradient id="id1" gradientUnits="userSpaceOnUse" x1="2180" y1="3375" x2="860" y2="-226"><stop offset="0" style="stop-color:#CAD7C4" id="stop14"/><stop offset="1" style="stop-color:#B3C5A8" id="stop16"/></linearGradient><linearGradient id="id2" gradientUnits="userSpaceOnUse" x1="5523" y1="6417" x2="4376" y2="3290"><stop offset="0" style="stop-color:#00A2D9" id="stop19"/><stop offset="1" style="stop-color:#47B6DD" id="stop21"/></linearGradient><linearGradient id="id3" gradientUnits="userSpaceOnUse" x1="4707" y1="6993" x2="1993" y2="-408"><stop offset="0" style="stop-color:#B6DDC7" id="stop24"/><stop offset="1" style="stop-color:#98AF85" id="stop26"/></linearGradient><inkscape:perspective id="perspective3764" inkscape:persp3d-origin="0.5 : 0.33333333 : 1" inkscape:vp_z="1 : 0.5 : 1" inkscape:vp_y="0 : 1000 : 0" inkscape:vp_x="0 : 0.5 : 1" sodipodi:type="inkscape:persp3d"/><path style="fill:none;stroke:none" d="M 328.25586,566.40227 C 430.86973,537.36095 550.50457,455.69667 577.66595,300.9012" id="path3745-6" transform="matrix(11.112587,0,0,11.112587,-0.47930145,0)" sodipodi:nodetypes="cc"/><inkscape:perspective id="perspective3885" inkscape:persp3d-origin="0.5 : 0.33333333 : 1" inkscape:vp_z="1 : 0.5 : 1" inkscape:vp_y="0 : 1000 : 0" inkscape:vp_x="0 : 0.5 : 1" sodipodi:type="inkscape:persp3d"/><inkscape:perspective id="perspective3938" inkscape:persp3d-origin="0.5 : 0.33333333 : 1" inkscape:vp_z="1 : 0.5 : 1" inkscape:vp_y="0 : 1000 : 0" inkscape:vp_x="0 : 0.5 : 1" sodipodi:type="inkscape:persp3d"/><inkscape:perspective id="perspective3970" inkscape:persp3d-origin="0.5 : 0.33333333 : 1" inkscape:vp_z="1 : 0.5 : 1" inkscape:vp_y="0 : 1000 : 0" inkscape:vp_x="0 : 0.5 : 1" sodipodi:type="inkscape:persp3d"/><inkscape:perspective id="perspective4011" inkscape:persp3d-origin="0.5 : 0.33333333 : 1" inkscape:vp_z="1 : 0.5 : 1" inkscape:vp_y="0 : 1000 : 0" inkscape:vp_x="0 : 0.5 : 1" sodipodi:type="inkscape:persp3d"/><inkscape:perspective id="perspective4057" inkscape:persp3d-origin="0.5 : 0.33333333 : 1" inkscape:vp_z="1 : 0.5 : 1" inkscape:vp_y="0 : 1000 : 0" inkscape:vp_x="0 : 0.5 : 1" sodipodi:type="inkscape:persp3d"/><inkscape:perspective id="perspective4094" inkscape:persp3d-origin="0.5 : 0.33333333 : 1" inkscape:vp_z="1 : 0.5 : 1" inkscape:vp_y="0 : 1000 : 0" inkscape:vp_x="0 : 0.5 : 1" sodipodi:type="inkscape:persp3d"/></defs><g id="Layer 1" transform="translate(27.714777,103.59579)"><path class="fil0" d="m 1025,6733 c 27,-406 172,-792 291,-771 27,-22 69,46 76,144 23,68 89,44 136,-48 21,-87 74,-105 119,-16 50,50 94,6 92,-80 -13,-278 21,-671 76,-782 30,-451 300,-1003 548,-1101 134,-91 410,-100 544,-11 80,98 286,116 402,27 139,-192 323,-291 374,-208 135,119 295,125 320,-4 12,-120 90,-150 161,-72 47,31 95,70 143,110 73,1 154,2 236,4 169,118 294,118 248,13 -87,-103 -157,-227 -143,-245 -78,-117 -116,-507 -63,-758 -18,-353 -154,-673 -147,-729 27,-243 165,-613 160,-761 50,-35 101,-26 111,23 50,22 111,13 125,-9 63,2 143,15 152,31 43,-33 82,-74 120,-116 34,-25 56,24 36,111 91,-71 217,-77 253,-16 43,-237 250,-450 432,-426 104,-27 212,51 210,158 121,111 253,76 240,-64 -63,-223 109,-407 356,-356 97,-3 100,-44 -18,-99 -281,-62 -512,-313 -449,-520 2,-64 15.9551,-207.50597 17.9551,-260.50597 -2094.6621,0.599334 -4145.3817,8.637682 -6205.820364,-5.08982 C -4.8652645,2055.4042 0,4228 -12,6348 c -21,122 -17,257 -13,392 354,8 708,4 1050,-7 z" id="path29" sodipodi:nodetypes="ccccccccccccccccccccccccccccccccccccc" style="fill:#fefee9;fill-opacity:1;stroke:#0978ab;stroke-opacity:1;stroke-width:11.11258771;stroke-miterlimit:4;stroke-dasharray:none"/><path class="fil2" d="M 7276.4218,-98.217664 C 7274.4218,898.78234 7263,1979 7270,2990 c -5,1250 -10,2500 -6,3757 -341,2 -683,4 -1035,-7 -1728,3 -3457,5 -5204,-7 27,-406 172,-792 291,-771 27,-22 69,46 76,144 23,68 89,44 135,-48 21,-87 75,-105 120,-16 50,50 94,6 92,-80 -13,-278 21,-671 76,-782 30,-451 300,-1003 548,-1101 134,-91 410,-100 544,-11 80,98 285,116 401,27 140,-192 323,-291 375,-208 135,119 295,125 320,-4 12,-120 90,-150 160,-72 48,31 96,70 144,110 73,1 154,2 236,4 169,118 294,118 248,13 -87,-103 -157,-227 -143,-245 -78,-117 -116,-507 -63,-758 -18,-353 -154,-673 -148,-729 28,-243 166,-613 161,-761 50,-35 101,-26 111,23 50,22 110,13 125,-9 62,2 143,15 152,31 43,-33 81,-74 120,-116 34,-25 56,24 36,111 91,-71 217,-77 253,-16 42,-237 250,-450 432,-426 104,-27 212,51 210,158 121,111 253,76 239,-64 -62,-223 110,-407 356,-356 98,-3 101,-44 -17,-99 -282,-62 -512,-313 -449,-520 1,-64 11.4218,-207.55233 13.4218,-260.55233 l 1097,0.334666 z M 4219,3632 c 238,30 380,135 284,209 106,52 147,-27 88,-158 -94,-100 -195,-217 -195,-259 -7,-150 31,-305 63,-316 52,-449 11,-866 -76,-809 -63,19 -76,158 -19,285 32,75 -32,202 -145,246 33,104 -21,237 -108,259 0,139 0,265 0,392 27,82 87,170 108,151 z m -2950,-11 c 29,-61 -13,-174 -85,-227 -42,-337 26,-590 135,-497 74,-7 146,73 152,194 131,29 223,189 177,311 90,-12 112,215 25,464 93,236 143,489 76,497 8,99 42,255 59,295 -40,72 -95,164 -110,186 55,155 -4,349 -109,379 -57,-15 -112,-87 -84,-177 -97,-55 -123,-198 -51,-287 -93,-122 -59,-316 76,-379 4,-126 -21,-312 -42,-329 50,-191 -57,-409 -219,-430 z M -4,5172 c 32,-34 86,-34 135,-8 -2,29 86,105 177,151 82,-23 255,-61 345,-67 28,27 142,91 245,93 130,-30 206,114 168,286 59,66 43,222 -8,278 -101,59 -219,245 -236,371 65,131 -32,207 -169,160 -46,87 -105,116 -134,43 46,-95 21,-159 -43,-127 -50,46 -134,-46 -151,-211 -68,24 -169,-23 -186,-101 2,-114 -69,-173 -143,-118 -6,-264 -3,-511 0,-750 z" id="path33" style="fill:#c6ecff;fill-opacity:1;stroke:#0978ab;stroke-opacity:1;stroke-width:11.11258771;stroke-miterlimit:4;stroke-dasharray:none" sodipodi:nodetypes="ccccccccccccccccccccccccccccccccccccccccccccccccccccccccccccccccccccccccccccccc"/><path class="fil3" d="m 4664,3857 52,0 0,63 68,0 0,-63 60,0 0,63 68,0 0,-63 52,0 0,166 -300,0 0,-166 z" id="path35" style="fill:#1f1a17"/><path class="fil3" d="m 6636,655 53,0 0,63 68,0 0,-63 59,0 0,63 68,0 0,-63 52,0 0,166 -300,0 0,-166 z" id="path37" style="fill:#1f1a17"/><path d="m 4166,1558 231,16 -9,134 -232,-17 10,-133 z" id="path3869" style="fill:#88907c;fill-opacity:1"/><path d="m 4001,1344 231,16 -9,133 -232,-16 10,-133 z" id="path3867" style="fill:#88907c;fill-opacity:1"/><path d="m 3773,1504 231,16 -9,134 -231,-16 9,-134 z" id="path3865" style="fill:#88907c;fill-opacity:1"/><path d="m 3599,1268 231,16 -9,134 -231,-17 9,-133 z" id="path3863" style="fill:#88907c;fill-opacity:1"/><path d="m 3389,1464 232,16 -10,134 -231,-16 9,-134 z" id="path3861" style="fill:#88907c;fill-opacity:1"/><path class="fil6" d="m 3497,2355 231,16 -9,134 -232,-16 10,-134 z" id="path47" style="fill:#8e84b7"/><path class="fil6" d="m 3919,2404 232,16 -10,134 -231,-17 9,-133 z" id="path49" style="fill:#8e84b7"/><path class="fil6" d="m 3984,2756 232,16 -10,134 -231,-16 9,-134 z" id="path51" style="fill:#8e84b7"/><path class="fil6" d="m 4104,2117 231,16 -9,133 -232,-16 10,-133 z" id="path53" style="fill:#8e84b7"/><path class="fil6" d="m 3713,2068 232,16 -10,134 -231,-17 9,-133 z" id="path55" style="fill:#8e84b7"/><path class="fil6" d="m 3350,2041 232,16 -10,133 -231,-16 9,-133 z" id="path57" style="fill:#8e84b7"/><path class="fil7" d="m 3042,4362 22,-125 18,0 -20,110 57,0 -3,15 -74,0 z m 172,-86 -12,54 c 0,2 0,5 0,8 0,8 1,17 4,24 l -17,0 c -1,-2 -2,-5 -3,-9 -2,3 -6,6 -12,8 -5,2 -11,3 -16,3 -9,0 -17,-3 -22,-8 -5,-5 -7,-13 -7,-23 0,-17 5,-32 15,-45 10,-13 22,-19 38,-19 15,0 25,2 32,7 z m -18,10 c -2,-3 -7,-4 -16,-4 -9,0 -17,5 -24,15 -7,9 -10,21 -10,36 0,12 5,18 16,18 6,0 11,-3 16,-9 5,-6 9,-13 10,-22 l 8,-34 z m 83,76 10,-57 c 0,-3 0,-5 0,-7 0,-10 -5,-15 -15,-15 -4,0 -8,1 -12,3 -5,2 -8,5 -11,8 l -12,68 -17,0 23,-129 16,0 -8,48 c 3,-4 7,-6 12,-9 5,-2 11,-3 16,-3 8,0 14,2 19,7 4,5 6,11 6,19 0,3 0,6 0,10 l -11,57 -16,0 z m 97,0 9,-53 c 1,-5 1,-9 1,-12 0,-9 -5,-14 -15,-14 -4,0 -8,1 -12,3 -5,2 -8,5 -11,8 l -12,68 -16,0 12,-69 c 1,-2 1,-4 1,-6 0,-6 -1,-11 -2,-15 l 16,-3 c 1,8 2,13 2,14 7,-9 17,-14 30,-14 16,0 25,8 25,25 0,4 -1,7 -1,12 l -10,56 -17,0 z m 123,-86 -11,54 c -1,2 -1,5 -1,8 0,8 1,17 4,24 l -16,0 c -1,-2 -2,-5 -3,-9 -3,3 -7,6 -12,8 -6,2 -11,3 -17,3 -9,0 -16,-3 -21,-8 -5,-5 -8,-13 -8,-23 0,-17 5,-32 15,-45 10,-13 23,-19 38,-19 15,0 26,2 32,7 z m -18,10 c -2,-3 -7,-4 -16,-4 -9,0 -16,5 -23,15 -7,9 -11,21 -11,36 0,12 6,18 17,18 5,0 11,-3 16,-9 5,-6 8,-13 10,-22 l 7,-34 z" id="path61" style="fill:#0978ab;fill-opacity:1"/><path class="fil7" d="m 3739,4129 -3,-24 -41,0 -13,24 -18,0 67,-116 4,0 23,116 -19,0 z m -12,-84 -26,48 33,0 -7,-48 z m 71,47 -5,5 -6,32 -15,0 20,-118 14,0 -10,69 c 19,-19 31,-31 36,-37 l 10,9 c -9,9 -19,20 -32,32 l 31,45 -17,0 -26,-37 z m 112,-32 c -4,-2 -7,-4 -11,-4 -6,0 -11,3 -15,8 -5,5 -8,10 -9,17 l -9,48 -15,0 15,-83 15,0 -2,13 c 7,-10 16,-15 26,-15 2,0 5,0 9,1 l -4,15 z m 7,38 c 0,-15 4,-27 13,-38 8,-11 20,-16 33,-16 10,0 18,3 23,8 6,6 8,13 8,24 0,8 -1,16 -4,25 -4,8 -9,15 -16,21 -7,6 -16,9 -26,9 -10,0 -18,-3 -23,-9 -6,-5 -8,-13 -8,-24 z m 15,-1 c 0,14 6,22 18,22 9,0 16,-5 21,-13 5,-9 8,-19 8,-30 0,-13 -6,-20 -18,-20 -6,0 -11,2 -16,6 -4,5 -8,10 -10,17 -2,6 -3,13 -3,18 z m 90,-40 -10,0 3,-11 9,0 4,-18 17,-6 -6,24 23,0 -3,11 -23,0 -8,42 c -1,3 -1,5 -1,7 0,8 4,12 12,12 3,0 8,-1 12,-3 l -1,13 c -4,2 -11,3 -20,3 -6,0 -11,-2 -14,-6 -3,-4 -5,-9 -5,-15 0,-1 0,-3 1,-5 l 10,-48 z m 76,-44 c 3,0 6,1 8,3 2,2 3,4 3,7 0,3 -1,5 -3,7 -2,3 -5,3 -8,3 -2,0 -5,0 -7,-3 -2,-2 -3,-4 -3,-7 0,-3 1,-5 3,-7 2,-2 5,-3 7,-3 z m -24,116 13,-71 -11,0 3,-12 25,0 -15,83 -15,0 z m 104,-69 c -3,-2 -7,-4 -11,-4 -5,0 -10,3 -15,8 -5,5 -8,10 -9,17 l -9,48 -15,0 15,-83 15,0 -2,13 c 7,-10 16,-15 26,-15 2,0 5,0 9,1 l -4,15 z m 36,-47 c 3,0 5,1 7,3 2,2 3,4 3,7 0,3 -1,5 -3,7 -2,3 -4,3 -7,3 -3,0 -6,0 -8,-3 -2,-2 -3,-4 -3,-7 0,-3 1,-5 3,-7 2,-2 5,-3 8,-3 z m -24,116 12,-71 -11,0 3,-12 26,0 -15,83 -15,0 z m 120,-78 -10,48 c -1,2 -1,5 -1,8 0,8 1,15 4,22 l -15,0 c -1,-2 -2,-4 -3,-8 -2,3 -6,5 -11,7 -4,2 -10,3 -15,3 -8,0 -15,-3 -19,-8 -5,-5 -7,-12 -7,-21 0,-15 4,-28 13,-40 9,-12 21,-18 35,-18 14,0 23,2 29,7 z m -16,8 c -2,-2 -6,-3 -14,-3 -9,0 -16,4 -22,13 -6,9 -10,20 -10,33 0,11 5,17 15,17 5,0 10,-3 15,-8 4,-6 7,-13 9,-21 l 7,-31 z" id="path63" style="fill:#0978ab;fill-opacity:1"/><path class="fil7" d="m 5528,1515 -16,-45 c -4,0 -9,0 -15,0 l -8,45 -15,0 18,-103 c 2,0 6,-1 12,-1 5,0 10,0 13,0 11,0 20,2 26,5 5,4 8,10 8,17 0,9 -2,16 -7,23 -5,6 -12,10 -19,12 l 19,47 -16,0 z m -23,-91 -6,34 c 3,0 7,0 10,0 8,0 15,-1 20,-5 5,-3 7,-8 7,-14 0,-6 -1,-10 -5,-12 -4,-2 -10,-3 -18,-3 -2,0 -4,0 -8,0 z m 122,20 -9,44 c -1,2 -1,4 -1,6 0,8 1,14 3,21 l -13,0 c -1,-2 -2,-4 -3,-8 -2,3 -5,5 -9,7 -5,1 -9,2 -14,2 -8,0 -13,-2 -18,-7 -4,-4 -6,-10 -6,-18 0,-14 4,-26 12,-37 9,-11 19,-16 32,-16 12,0 21,2 26,6 z m -15,8 c -1,-2 -5,-3 -13,-3 -7,0 -14,4 -19,12 -6,8 -9,17 -9,29 0,10 5,15 14,15 4,0 9,-2 13,-7 4,-5 7,-11 8,-18 l 6,-28 z m 49,64 -4,0 -22,-77 14,0 14,52 28,-52 16,0 -46,77 z m 60,-37 c -1,2 -1,4 -1,7 0,6 2,10 5,14 4,3 9,5 15,5 6,0 11,-2 17,-6 l -2,13 c -7,3 -14,4 -20,4 -19,0 -29,-11 -29,-33 0,-12 4,-23 13,-32 8,-9 18,-13 30,-13 8,0 14,2 18,5 5,3 7,7 7,13 0,9 -4,15 -11,20 -6,5 -15,7 -25,7 -7,0 -13,-1 -17,-4 z m 2,-10 c 4,2 8,3 13,3 7,0 13,-1 18,-4 4,-2 7,-6 7,-10 0,-6 -4,-9 -12,-9 -12,0 -21,7 -26,20 z m 106,46 1,-9 c -5,7 -12,10 -22,10 -8,0 -14,-2 -19,-7 -5,-5 -7,-12 -7,-21 0,-15 4,-27 12,-36 8,-9 18,-14 30,-14 7,0 13,3 17,9 l 7,-39 12,0 -18,107 -13,0 z m 9,-55 c 0,0 0,-1 -2,-4 -1,-2 -3,-4 -5,-5 -2,-1 -4,-2 -6,-2 -8,0 -15,4 -20,10 -6,7 -8,16 -8,26 0,14 5,20 16,20 5,0 9,-2 14,-7 4,-5 7,-11 8,-19 l 3,-19 z m 24,27 c 0,-13 4,-25 12,-35 7,-9 17,-14 30,-14 9,0 16,2 20,7 5,5 8,12 8,21 0,8 -2,15 -5,23 -2,8 -7,14 -14,19 -6,5 -14,8 -23,8 -9,0 -16,-2 -21,-8 -5,-5 -7,-12 -7,-21 z m 14,-1 c 0,13 5,19 16,19 8,0 14,-4 19,-11 4,-8 7,-17 7,-27 0,-12 -6,-18 -16,-18 -6,0 -10,2 -15,6 -4,3 -7,8 -9,14 -1,6 -2,12 -2,17 z m 58,24 7,-13 c 2,2 5,4 8,6 4,1 7,2 9,2 4,0 8,-1 10,-4 3,-2 4,-5 4,-9 0,-2 0,-3 -2,-5 -1,-2 -4,-3 -7,-5 l -10,-6 c -3,-2 -5,-4 -7,-6 -1,-3 -2,-6 -2,-9 0,-7 3,-12 8,-17 5,-4 12,-6 20,-6 6,0 12,2 20,5 l -6,13 c -5,-5 -10,-7 -15,-7 -3,0 -6,1 -9,3 -3,2 -4,4 -4,7 0,2 1,4 2,6 2,1 4,3 8,5 l 10,5 c 3,2 5,4 7,6 1,3 2,6 2,9 0,8 -3,14 -9,19 -6,5 -13,7 -22,7 -8,0 -15,-2 -22,-6 z" id="path65" style="fill:#0978ab;fill-opacity:1"/><path class="fil7" d="m 6188,1436 -20,-49 -18,20 -5,29 -14,0 18,-105 15,0 -10,54 48,-54 17,0 -40,45 25,60 -16,0 z m 53,-77 -9,49 c 0,2 -1,4 -1,6 0,8 5,12 13,12 5,0 10,-2 15,-6 4,-4 7,-8 8,-14 l 9,-47 14,0 -14,77 -14,0 2,-11 c -5,8 -15,12 -28,12 -6,0 -11,-2 -14,-5 -3,-4 -5,-9 -5,-15 0,-2 0,-5 1,-8 l 9,-50 14,0 z m 111,13 c -3,-2 -7,-3 -10,-3 -5,0 -10,2 -14,7 -5,4 -7,10 -8,16 l -8,44 -14,0 14,-77 13,0 -2,12 c 7,-9 15,-13 25,-13 1,0 4,0 8,1 l -4,13 z m 32,-13 -9,49 c 0,2 -1,4 -1,6 0,8 5,12 13,12 5,0 10,-2 15,-6 4,-4 7,-8 8,-14 l 9,-47 14,0 -14,77 -14,0 2,-11 c -6,8 -15,12 -28,12 -6,0 -11,-2 -14,-5 -3,-4 -5,-9 -5,-15 0,-2 0,-5 1,-8 l 9,-50 14,0 z m 74,11 -9,0 2,-11 9,0 3,-16 16,-6 -5,22 21,0 -3,11 -21,0 -8,38 c 0,3 -1,5 -1,7 0,7 4,11 11,11 4,0 8,-1 12,-3 l -1,12 c -4,1 -10,2 -19,2 -5,0 -9,-1 -13,-5 -3,-3 -4,-8 -4,-14 0,-1 0,-3 1,-5 l 9,-43 z m 114,-6 -10,44 c 0,2 0,4 0,7 0,8 1,14 3,21 l -14,0 c 0,-2 -1,-4 -2,-8 -2,3 -6,5 -10,7 -4,1 -9,2 -14,2 -8,0 -14,-2 -18,-6 -4,-5 -6,-11 -6,-20 0,-14 4,-26 12,-37 9,-11 19,-16 32,-16 13,0 21,2 27,6 z m -15,8 c -2,-2 -6,-3 -13,-3 -8,0 -14,4 -20,12 -6,8 -9,18 -9,30 0,10 5,15 14,15 5,0 9,-2 13,-7 4,-5 7,-11 9,-19 l 6,-28 z m 76,0 c -2,-2 -6,-3 -10,-3 -4,0 -9,2 -13,7 -5,4 -8,10 -9,16 l -8,44 -13,0 13,-77 14,0 -2,12 c 6,-9 15,-13 24,-13 2,0 5,0 8,1 l -4,13 z m 34,-43 c 2,0 4,1 6,3 2,1 3,4 3,6 0,3 -1,5 -3,7 -2,2 -4,3 -6,3 -3,0 -5,-1 -7,-3 -2,-2 -3,-4 -3,-7 0,-2 1,-5 3,-6 2,-2 4,-3 7,-3 z m -22,107 11,-66 -10,0 3,-11 23,0 -14,77 -13,0 z m 110,-72 -9,44 c -1,2 -1,4 -1,7 0,8 1,14 4,21 l -14,0 c -1,-2 -2,-4 -3,-8 -2,3 -5,5 -10,7 -4,1 -9,2 -14,2 -7,0 -13,-2 -17,-6 -5,-5 -7,-11 -7,-20 0,-14 4,-26 13,-37 8,-11 19,-16 32,-16 12,0 21,2 26,6 z m -15,8 c -1,-2 -6,-3 -13,-3 -8,0 -14,4 -20,12 -6,8 -8,18 -8,30 0,10 4,15 13,15 5,0 9,-2 13,-7 5,-5 8,-11 9,-19 l 6,-28 z" id="path67" style="fill:#0978ab;fill-opacity:1"/><path class="fil8 str0" d="m 4240,-12 c -41,78 -14,160 54,162 123,67 77,267 146,347 77,89 133,240 82,423 -22,76 144,174 162,238 25,86 -4,217 -16,263" id="path69" style="fill:none;stroke:#0978ab;stroke-width:28;stroke-opacity:1"/><g id="g71"><path class="fil6" d="m 6537,719 -77,10 -80,11 -83,14 -86,17 -88,18 -90,21 -91,23 -92,24 -94,27 -93,29 -94,31 -93,33 -93,35 -92,37 -90,39 -89,40 -87,43 -84,44 -81,46 -78,48 -75,49 -71,52 -66,53 -62,54 -57,57 -52,58 -46,60 -39,61 -34,63 -26,65 -19,66 -11,68 41,4 10,-63 18,-62 25,-60 31,-60 38,-58 44,-58 50,-56 55,-54 60,-53 65,-52 70,-50 73,-49 77,-47 80,-45 83,-44 86,-42 87,-40 90,-39 91,-36 92,-35 92,-32 93,-31 93,-29 93,-27 92,-24 90,-23 89,-20 87,-18 85,-17 82,-14 80,-11 76,-9 z" id="path73" style="fill:#8e84b7"/><path class="fil6" d="m 6495,689 113,43 -101,68 -12,-111 224,31 z" id="path75" style="fill:#8e84b7"/></g><g id="g79"><path class="fil6" d="m 2004,4079 0,0 61,-11 61,-12 61,-12 60,-13 59,-13 59,-14 58,-15 56,-15 56,-15 55,-16 53,-17 53,-16 51,-18 49,-17 48,-18 46,-18 45,-18 42,-19 41,-19 39,-18 37,-20 35,-19 32,-19 30,-20 28,-19 25,-20 23,-19 20,-20 18,-20 14,-20 12,-21 8,-21 -39,-12 -6,15 -10,16 -12,17 -15,17 -18,18 -21,18 -24,18 -26,19 -29,19 -31,18 -34,19 -35,18 -38,19 -40,18 -42,19 -44,18 -46,17 -47,18 -49,17 -50,17 -52,17 -53,16 -54,16 -55,15 -57,15 -57,15 -58,13 -59,14 -60,12 -60,13 -60,11 -61,11 0,0 z" id="path81" style="fill:#8e84b7"/><path class="fil6" d="m 1497,4497 0,0 7,-11 8,-12 8,-12 10,-13 11,-14 11,-15 12,-15 13,-15 14,-16 14,-17 15,-16 16,-17 16,-16 17,-17 17,-17 18,-16 17,-16 19,-16 18,-16 19,-15 19,-14 19,-14 19,-13 20,-13 19,-11 19,-11 19,-9 19,-9 19,-7 19,-7 18,-5 18,-3 -7,-41 -21,4 -20,6 -21,7 -21,8 -20,9 -21,11 -21,11 -20,12 -20,13 -21,14 -20,15 -19,15 -20,15 -19,16 -19,17 -19,16 -18,17 -17,17 -17,18 -17,17 -16,17 -16,17 -14,16 -14,17 -14,16 -13,15 -11,15 -11,15 -11,14 -9,13 -8,12 -7,12 0,0 z" id="path83" style="fill:#8e84b7"/><path class="fil6" d="m 587,5151 0,0 31,7 32,4 32,1 32,0 31,-3 32,-6 31,-7 32,-9 31,-12 30,-13 31,-15 31,-17 30,-19 30,-20 29,-21 29,-23 29,-25 29,-25 28,-27 28,-28 28,-29 27,-30 27,-31 26,-31 26,-33 26,-33 25,-34 24,-34 24,-35 24,-35 23,-36 22,-35 -35,-22 -22,35 -23,35 -23,35 -24,34 -24,34 -24,33 -25,33 -26,31 -26,31 -26,30 -26,30 -27,28 -28,27 -27,26 -28,25 -28,23 -28,22 -28,21 -29,19 -28,18 -29,16 -29,14 -29,12 -29,11 -28,9 -29,7 -29,5 -29,2 -28,1 -29,-2 -29,-3 -28,-7 0,0 z" id="path85" style="fill:#8e84b7"/><path class="fil6" d="m 316,5159 2,0 9,0 9,0 10,0 9,-1 9,0 9,-1 9,0 9,-1 9,-1 9,-1 8,-1 9,-1 9,-1 9,-1 8,-1 9,-1 8,-1 9,-1 8,0 8,-1 8,-1 8,0 9,0 8,0 7,0 8,0 8,1 7,1 8,0 7,2 7,1 8,2 10,-41 -9,-2 -9,-1 -8,-2 -9,-1 -9,-1 -9,0 -8,-1 -9,0 -9,0 -9,1 -9,0 -8,0 -9,1 -9,1 -9,1 -9,1 -8,1 -9,1 -9,1 -8,1 -9,1 -9,1 -9,1 -8,0 -9,1 -8,1 -9,0 -8,1 -9,0 -8,0 -9,1 -8,-1 2,1 z" id="path87" style="fill:#8e84b7"/><path class="fil6" d="m 199,5141 7,1 7,1 7,1 7,2 7,1 8,1 7,1 7,1 7,1 8,1 7,1 7,1 8,1 7,2 8,1 8,1 5,-41 -7,-2 -8,-1 -7,-1 -8,-1 -7,-1 -7,-1 -8,-1 -7,-1 -7,-1 -7,-1 -7,-2 -8,-1 -7,-1 -7,-1 -7,-1 -7,-1 z" id="path89" style="fill:#8e84b7"/><path class="fil6" d="m 231,5182 -98,-72 115,-39 -17,111 -208,-89 z" id="path91" style="fill:#8e84b7"/></g><g id="g93"><path class="fil6" d="m 7130,3040 -45,66 -44,71 -43,78 -43,84 -42,89 -42,95 -41,100 -39,104 -40,108 -38,113 -37,116 -36,120 -35,122 -34,125 -32,128 -31,130 -30,131 -29,133 -26,133 -26,135 -23,135 -22,135 -20,135 -18,134 -16,133 -15,133 -12,130 -10,129 -8,127 -5,124 -3,121 -1,118 41,0 1,-118 3,-120 6,-123 8,-126 10,-128 12,-130 14,-132 16,-133 18,-134 20,-134 22,-134 23,-135 25,-134 27,-133 28,-132 30,-131 31,-129 32,-127 34,-125 35,-122 36,-119 37,-115 38,-112 38,-108 40,-103 40,-99 42,-94 41,-88 42,-82 43,-77 43,-70 43,-63 z" id="path95" style="fill:#8e84b7"/><path class="fil6" d="m 7079,3051 108,-55 -18,120 -90,-65 173,-145 z" id="path97" style="fill:#8e84b7"/></g><g id="g101"><path class="fil6" d="m 5111,4203 -113,-43 30,117 83,-74 -187,-126 z" id="path103" style="fill:#8e84b7"/><path class="fil6" d="m 5680,6782 9,-76 6,-80 4,-82 1,-84 0,-86 -3,-88 -5,-90 -7,-91 -8,-91 -11,-93 -13,-93 -14,-93 -16,-93 -18,-93 -19,-93 -21,-92 -23,-90 -23,-90 -26,-88 -26,-86 -28,-85 -30,-82 -30,-80 -32,-77 -32,-74 -34,-70 -35,-68 -35,-64 -37,-59 -37,-56 -38,-51 -39,-46 -31,27 37,45 37,49 36,54 36,58 35,63 34,66 33,70 32,73 31,76 30,78 29,82 28,83 26,86 25,87 24,89 22,90 21,91 19,92 18,92 16,93 14,92 13,92 10,92 9,91 7,90 5,88 2,87 1,86 -2,83 -4,81 -6,78 -8,75 z" id="path105" style="fill:#8e84b7"/></g><g id="g113"><g id="g115"><path class="fil5" d="m 499,4909 3,-2 36,-25 37,-25 37,-25 37,-25 37,-25 38,-24 37,-24 37,-24 37,-23 37,-23 36,-23 36,-22 36,-22 35,-21 35,-20 34,-20 33,-20 33,-18 31,-19 31,-17 30,-16 29,-16 27,-15 27,-14 25,-14 24,-12 22,-11 21,-10 20,-10 18,-8 16,-7 14,-6 -15,-38 -15,6 -17,7 -18,9 -21,9 -21,11 -23,11 -24,12 -26,14 -26,14 -28,15 -29,16 -30,17 -31,17 -32,18 -33,19 -33,20 -34,20 -35,21 -36,21 -35,22 -37,22 -36,23 -37,23 -37,23 -38,24 -37,24 -37,25 -38,24 -37,25 -37,25 -37,25 -37,26 4,-2 z" id="path117" style="fill:#838281"/><path class="fil5" d="m 467,4931 0,-1 1,-1 1,0 1,-1 0,-1 1,-1 1,0 1,-1 0,-1 1,0 1,-1 0,0 1,-1 1,-1 1,0 1,-1 1,-1 0,0 1,-1 1,-1 1,0 1,-1 2,-1 1,0 1,-1 1,-1 2,-1 1,0 2,-1 1,-1 2,-1 2,0 -17,-38 -2,1 -3,1 -2,1 -2,1 -2,1 -1,1 -2,1 -2,1 -2,1 -1,1 -2,1 -1,1 -2,1 -1,1 -2,1 -1,1 -2,1 -1,1 -1,1 -1,1 -1,1 -1,1 -2,1 -1,0 -1,1 -1,1 -1,1 0,1 -1,1 -1,1 -1,1 -1,0 z" id="path119" style="fill:#838281"/><path class="fil5" d="m 519,4929 -116,36 36,-115 80,79 -195,115 z" id="path121" style="fill:#838281"/></g><g id="g123"><path class="fil5" d="m 4437,1044 40,-157 -151,58 111,99 138,-268 z" id="path125" style="fill:#838281"/><path class="fil5" d="m 4373,1484 -4,-16 -3,-17 -3,-17 -2,-17 -2,-18 -2,-19 -1,-18 -1,-19 0,-19 0,-19 0,-19 1,-19 1,-19 2,-18 1,-19 2,-18 3,-18 3,-18 3,-17 4,-17 3,-17 5,-16 4,-15 5,-15 5,-13 5,-14 5,-12 6,-11 5,-11 6,-9 6,-8 6,-7 -41,-37 -9,10 -8,11 -7,12 -7,13 -7,14 -6,14 -6,15 -6,16 -5,16 -5,17 -4,17 -5,18 -3,18 -4,19 -3,18 -2,20 -3,19 -2,20 -1,20 -1,20 -1,20 -1,20 0,20 1,20 1,20 1,19 2,20 2,19 2,19 3,19 4,18 4,18 z" id="path127" style="fill:#838281"/></g><g id="g129"><path class="fil5" d="m 4973,1054 -2,-19 -3,-18 -4,-19 -5,-18 -6,-18 -6,-17 -8,-18 -8,-16 -9,-17 -9,-16 -11,-16 -10,-15 -12,-15 -12,-14 -12,-13 -13,-13 -14,-13 -14,-11 -14,-12 -15,-10 -15,-10 -15,-8 -16,-9 -16,-7 -16,-6 -16,-6 -17,-4 -16,-4 -17,-2 -17,-1 -17,0 -17,1 5,55 13,-1 14,0 13,1 13,2 14,3 13,4 14,4 13,5 13,6 14,7 13,8 12,8 13,9 12,10 13,10 11,11 12,11 10,12 11,12 10,13 10,14 8,13 9,14 8,15 7,14 6,15 6,15 5,16 4,15 4,16 2,16 2,16 z" id="path131" style="fill:#838281"/><path class="fil5" d="m 5016,999 -62,149 -87,-136 149,-13 -49,297 z" id="path133" style="fill:#838281"/></g><g id="g135"><path class="fil5" d="m 5590,743 -5,-26 -6,-24 -8,-24 -10,-22 -10,-21 -12,-20 -13,-18 -15,-18 -15,-16 -17,-14 -17,-13 -18,-12 -19,-11 -20,-9 -21,-7 -21,-6 -22,-4 -22,-3 -23,-2 -23,0 -23,2 -23,3 -24,4 -24,6 -24,8 -24,9 -24,11 -24,12 -24,13 -24,16 -23,16 -23,18 35,43 21,-17 22,-15 21,-13 21,-13 22,-10 21,-10 21,-8 21,-6 21,-6 20,-4 20,-2 20,-1 20,0 19,1 18,2 18,4 17,5 17,6 16,7 16,8 14,10 14,10 14,12 12,13 12,14 10,15 10,17 9,17 8,19 6,20 6,21 5,22 z" id="path137" style="fill:#838281"/><path class="fil5" d="m 5628,685 -50,153 -97,-129 147,-24 -26,300 z" id="path139" style="fill:#838281"/></g><g id="g141"><path class="fil5" d="m 3872,3354 -58,-100 -58,-100 -58,-100 -58,-100 -58,-100 -59,-100 -58,-100 -58,-100 -58,-100 -58,-100 -58,-100 -58,-100 -58,-100 -59,-100 -58,-100 -58,-100 -96,56 58,100 58,100 59,100 58,100 58,100 58,100 58,100 58,100 58,100 59,99 58,100 58,100 58,100 58,100 58,100 58,100 z" id="path143" style="fill:#838281"/><path class="fil5" d="m 3902,3218 15,323 -273,-173 258,-150 164,579 z" id="path145" style="fill:#838281"/></g><g id="g147"><path class="fil5" d="m 2785,3481 -72,253 248,-86 -176,-167 -237,428 z" id="path149" style="fill:#838281"/><path class="fil5" d="m 3085,2187 15,34 14,36 12,37 10,40 8,41 6,43 4,44 3,46 1,46 -1,48 -2,49 -4,49 -6,49 -7,50 -9,50 -10,50 -12,50 -13,50 -15,50 -16,49 -17,48 -19,48 -19,46 -21,46 -22,44 -23,43 -24,42 -26,40 -26,37 -27,36 -27,34 -29,32 66,62 31,-35 30,-37 30,-39 28,-41 26,-43 26,-44 25,-45 23,-47 22,-48 21,-49 19,-50 19,-51 16,-52 16,-51 14,-53 12,-52 11,-53 9,-53 8,-52 6,-53 4,-52 2,-51 1,-51 -1,-50 -3,-49 -5,-48 -7,-47 -9,-46 -11,-44 -13,-43 -16,-41 -18,-39 z" id="path151" style="fill:#838281"/></g></g><switch style="font-size:800.10632324px;font-style:normal;font-variant:normal;font-weight:normal;font-stretch:normal;text-align:start;line-height:125%;writing-mode:lr-tb;text-anchor:start;fill:#0978ab;fill-opacity:1;stroke:none;font-family:DejaVu Sans;-inkscape-font-specification:DejaVu Sans;"><text xml:space="preserve" style="font-size:800.10632324px;font-style:normal;font-variant:normal;font-weight:normal;font-stretch:normal;text-align:start;line-height:125%;writing-mode:lr-tb;text-anchor:start;fill:#0978ab;fill-opacity:1;stroke:none;font-family:DejaVu Sans;-inkscape-font-specification:DejaVu Sans;" id="text2969-ca" sodipodi:linespacing="125%" x="324.9483" y="6644.3428" transform="matrix(0.96430609,-0.26479002,0.26479002,0.96430609,0,0)" systemLanguage="ca"><tspan id="tspan2971-ca" style="fill:#0978ab;fill-opacity:1;">Mar Negra</tspan></text><text xml:space="preserve" style="font-size:800.10632324px;font-style:normal;font-variant:normal;font-weight:normal;font-stretch:normal;text-align:start;line-height:125%;writing-mode:lr-tb;text-anchor:start;fill:#0978ab;fill-opacity:1;stroke:none;font-family:DejaVu Sans;-inkscape-font-specification:DejaVu Sans;" id="text2969" sodipodi:linespacing="125%" x="324.9483" y="6644.3428" transform="matrix(0.96430609,-0.26479002,0.26479002,0.96430609,0,0)"><tspan id="tspan2971" style="fill:#0978ab;fill-opacity:1;">Mar Negro</tspan></text></switch>
<path style="fill:none;stroke:none" d="M 328.25586,566.40227 C 430.86973,537.36095 550.50457,455.69667 577.66595,300.9012" id="path3745" transform="matrix(11.112587,0,0,11.112587,-0.47930145,0)" sodipodi:nodetypes="cc"/><switch style="font-size:800.10632324px;font-style:normal;font-variant:normal;font-weight:normal;font-stretch:normal;text-align:start;line-height:125%;writing-mode:lr-tb;text-anchor:start;fill:#858d79;fill-opacity:1;fill-rule:evenodd;stroke:#858d79;stroke-width:1;stroke-opacity:1;font-family:DejaVu Sans;-inkscape-font-specification:DejaVu Sans"><text xml:space="preserve" style="font-size:800.10632324px;font-style:normal;font-variant:normal;font-weight:normal;font-stretch:normal;text-align:start;line-height:125%;writing-mode:lr-tb;text-anchor:start;fill:#858d79;fill-opacity:1;fill-rule:evenodd;stroke:#858d79;stroke-width:1;stroke-opacity:1;font-family:DejaVu Sans;-inkscape-font-specification:DejaVu Sans" id="text2969-7-ca" sodipodi:linespacing="125%" x="-387.23364" y="2161.3533" transform="matrix(0.9412311,-0.33776326,0.33776326,0.9412311,0,0)" systemLanguage="ca"><tspan style="fill:#858d79;fill-opacity:1;stroke:#858d79;stroke-width:1;stroke-opacity:1" id="tspan2971-3-ca">Bulgària</tspan></text><text xml:space="preserve" style="font-size:800.10632324px;font-style:normal;font-variant:normal;font-weight:normal;font-stretch:normal;text-align:start;line-height:125%;writing-mode:lr-tb;text-anchor:start;fill:#858d79;fill-opacity:1;fill-rule:evenodd;stroke:#858d79;stroke-width:1;stroke-opacity:1;font-family:DejaVu Sans;-inkscape-font-specification:DejaVu Sans" id="text2969-7" sodipodi:linespacing="125%" x="-387.23364" y="2161.3533" transform="matrix(0.9412311,-0.33776326,0.33776326,0.9412311,0,0)"><tspan style="fill:#858d79;fill-opacity:1;stroke:#858d79;stroke-width:1;stroke-opacity:1" id="tspan2971-3">Bulgaria</tspan></text></switch>
<switch style="font-size:244.47691345px;font-style:normal;font-variant:normal;font-weight:normal;font-stretch:normal;text-align:start;line-height:125%;writing-mode:lr-tb;text-anchor:start;fill:#858d79;fill-opacity:1;stroke:#858d79;stroke-width:11.11258698;stroke-opacity:1;font-family:DejaVu Sans;-inkscape-font-specification:DejaVu Sans"><text xml:space="preserve" style="font-size:244.47691345px;font-style:normal;font-variant:normal;font-weight:normal;font-stretch:normal;text-align:start;line-height:125%;writing-mode:lr-tb;text-anchor:start;fill:#858d79;fill-opacity:1;stroke:#858d79;stroke-width:11.11258698;stroke-opacity:1;font-family:DejaVu Sans;-inkscape-font-specification:DejaVu Sans" x="1519.4258" y="2574.8977" id="text3871-ca" sodipodi:linespacing="125%" systemLanguage="ca"><tspan sodipodi:role="line" id="tspan3873-ca" x="1519.4258" y="2574.8977" style="stroke-width:11.11258698">Búlgars</tspan><tspan sodipodi:role="line" x="1519.4258" y="2880.4939" id="tspan3875-ca" style="stroke-width:11.11258698">(tsar Simeó)</tspan></text><text xml:space="preserve" style="font-size:244.47691345px;font-style:normal;font-variant:normal;font-weight:normal;font-stretch:normal;text-align:start;line-height:125%;writing-mode:lr-tb;text-anchor:start;fill:#858d79;fill-opacity:1;stroke:#858d79;stroke-width:11.11258698;stroke-opacity:1;font-family:DejaVu Sans;-inkscape-font-specification:DejaVu Sans" x="1519.4258" y="2574.8977" id="text3871" sodipodi:linespacing="125%"><tspan sodipodi:role="line" id="tspan3873" x="1519.4258" y="2574.8977" style="stroke-width:11.11258698">Búlgaros</tspan><tspan sodipodi:role="line" x="1519.4258" y="2880.4939" id="tspan3875" style="stroke-width:11.11258698">(zar Simeón)</tspan></text></switch>
<switch style="font-size:244.47689819px;font-style:oblique;font-variant:normal;font-weight:normal;font-stretch:normal;text-align:start;line-height:125%;writing-mode:lr-tb;text-anchor:start;fill:#0978ab;fill-opacity:1;fill-rule:evenodd;stroke:none;stroke-width:11.11258698;stroke-opacity:1;font-family:DejaVu Sans;-inkscape-font-specification:DejaVu Sans Oblique;"><text xml:space="preserve" style="font-size:244.47689819px;font-style:oblique;font-variant:normal;font-weight:normal;font-stretch:normal;text-align:start;line-height:125%;writing-mode:lr-tb;text-anchor:start;fill:#0978ab;fill-opacity:1;fill-rule:evenodd;stroke:none;stroke-width:11.11258698;stroke-opacity:1;font-family:DejaVu Sans;-inkscape-font-specification:DejaVu Sans Oblique;" x="2131.5808" y="4730.2178" id="text3871-3-ca" sodipodi:linespacing="125%" systemLanguage="ca"><tspan sodipodi:role="line" id="tspan3905-ca" x="2131.5808" y="4730.2178">Badia</tspan><tspan sodipodi:role="line" id="tspan3907-ca" x="2131.5808" y="5035.814">d'Anquíalos</tspan></text><text xml:space="preserve" style="font-size:244.47689819px;font-style:oblique;font-variant:normal;font-weight:normal;font-stretch:normal;text-align:start;line-height:125%;writing-mode:lr-tb;text-anchor:start;fill:#0978ab;fill-opacity:1;fill-rule:evenodd;stroke:none;stroke-width:11.11258698;stroke-opacity:1;font-family:DejaVu Sans;-inkscape-font-specification:DejaVu Sans Oblique;" x="2131.5808" y="4730.2178" id="text3871-3" sodipodi:linespacing="125%"><tspan sodipodi:role="line" id="tspan3905" x="2131.5808" y="4730.2178">Bahía de</tspan><tspan sodipodi:role="line" id="tspan3907" x="2131.5808" y="5035.814">Anquialo</tspan></text></switch>
<switch style="font-size:244.47689819px;font-style:normal;font-variant:normal;font-weight:normal;font-stretch:normal;text-align:start;line-height:125%;writing-mode:lr-tb;text-anchor:start;fill:#8e84b7;fill-opacity:1;fill-rule:evenodd;stroke:#8e84b7;stroke-width:11.11258698;stroke-opacity:1;font-family:DejaVu Sans;-inkscape-font-specification:DejaVu Sans"><text xml:space="preserve" style="font-size:244.47689819px;font-style:normal;font-variant:normal;font-weight:normal;font-stretch:normal;text-align:start;line-height:125%;writing-mode:lr-tb;text-anchor:start;fill:#8e84b7;fill-opacity:1;fill-rule:evenodd;stroke:#8e84b7;stroke-width:11.11258698;stroke-opacity:1;font-family:DejaVu Sans;-inkscape-font-specification:DejaVu Sans" x="4686.5742" y="2289.6821" id="text3871-9-ca" sodipodi:linespacing="125%" systemLanguage="ca"><tspan sodipodi:role="line" id="tspan3958-ca" x="4686.5742" y="2289.6821">Bizantins</tspan><tspan sodipodi:role="line" id="tspan3960-ca" x="4686.5742" y="2595.2783">(Lleó Focas)</tspan></text><text xml:space="preserve" style="font-size:244.47689819px;font-style:normal;font-variant:normal;font-weight:normal;font-stretch:normal;text-align:start;line-height:125%;writing-mode:lr-tb;text-anchor:start;fill:#8e84b7;fill-opacity:1;fill-rule:evenodd;stroke:#8e84b7;stroke-width:11.11258698;stroke-opacity:1;font-family:DejaVu Sans;-inkscape-font-specification:DejaVu Sans" x="4686.5742" y="2289.6821" id="text3871-9" sodipodi:linespacing="125%"><tspan sodipodi:role="line" id="tspan3958" x="4686.5742" y="2289.6821">Bizantinos</tspan><tspan sodipodi:role="line" id="tspan3960" x="4686.5742" y="2595.2783">(León Focas)</tspan></text></switch>
<switch style="font-size:244.47688293px;font-style:normal;font-variant:normal;font-weight:normal;font-stretch:normal;text-align:start;line-height:125%;writing-mode:lr-tb;text-anchor:start;fill:#8e84b7;fill-opacity:1;fill-rule:evenodd;stroke:#8e84b7;stroke-width:11.11258698;stroke-opacity:1;font-family:DejaVu Sans;-inkscape-font-specification:DejaVu Sans"><text xml:space="preserve" style="font-size:244.47688293px;font-style:normal;font-variant:normal;font-weight:normal;font-stretch:normal;text-align:start;line-height:125%;writing-mode:lr-tb;text-anchor:start;fill:#8e84b7;fill-opacity:1;fill-rule:evenodd;stroke:#8e84b7;stroke-width:11.11258698;stroke-opacity:1;font-family:DejaVu Sans;-inkscape-font-specification:DejaVu Sans" id="text3871-9-9-ca" sodipodi:linespacing="125%" x="5272.7549" y="2364.189" transform="matrix(0.95871469,-0.28436972,0.28436972,0.95871469,0,0)" systemLanguage="ca"><tspan style="stroke-width:11.11258698" id="tspan3960-8-ca">Lleó Focas</tspan></text><text xml:space="preserve" style="font-size:244.47688293px;font-style:normal;font-variant:normal;font-weight:normal;font-stretch:normal;text-align:start;line-height:125%;writing-mode:lr-tb;text-anchor:start;fill:#8e84b7;fill-opacity:1;fill-rule:evenodd;stroke:#8e84b7;stroke-width:11.11258698;stroke-opacity:1;font-family:DejaVu Sans;-inkscape-font-specification:DejaVu Sans" id="text3871-9-9" sodipodi:linespacing="125%" x="5272.7549" y="2364.189" transform="matrix(0.95871469,-0.28436972,0.28436972,0.95871469,0,0)"><tspan style="stroke-width:11.11258698" id="tspan3960-8">León Focas</tspan></text></switch>
<path style="fill:none;stroke:none" d="M 440.89269,108.61407 C 492.01592,85.084347 486.40517,82.756475 576.05686,61.1457" id="path3992" sodipodi:nodetypes="cc" transform="matrix(11.112587,0,0,11.112587,-0.47930145,0)"/><switch style="font-size:177.8013916px;font-style:normal;font-variant:normal;font-weight:normal;font-stretch:normal;text-align:start;line-height:100%;writing-mode:lr-tb;text-anchor:start;fill:#8e84b7;fill-opacity:1;fill-rule:evenodd;stroke:#8e84b7;stroke-width:11.11258698;stroke-opacity:1;font-family:DejaVu Sans;-inkscape-font-specification:DejaVu Sans"><text xml:space="preserve" style="font-size:177.8013916px;font-style:normal;font-variant:normal;font-weight:normal;font-stretch:normal;text-align:start;line-height:100%;writing-mode:lr-tb;text-anchor:start;fill:#8e84b7;fill-opacity:1;fill-rule:evenodd;stroke:#8e84b7;stroke-width:11.11258698;stroke-opacity:1;font-family:DejaVu Sans;-inkscape-font-specification:DejaVu Sans" id="text3871-9-7-ca" sodipodi:linespacing="100%" x="-5838.8872" y="7074.9004" transform="matrix(0.09792319,-0.99519398,0.99519398,0.09792319,0,0)" systemLanguage="ca"><tspan style="font-size:177.8013916px;font-style:normal;font-variant:normal;font-weight:normal;font-stretch:normal;text-align:start;line-height:100%;writing-mode:lr-tb;text-anchor:start;stroke-width:11.11258698;font-family:DejaVu Sans;-inkscape-font-specification:DejaVu Sans" id="tspan3960-2-ca">Romà I Lecapè</tspan></text><text xml:space="preserve" style="font-size:177.8013916px;font-style:normal;font-variant:normal;font-weight:normal;font-stretch:normal;text-align:start;line-height:100%;writing-mode:lr-tb;text-anchor:start;fill:#8e84b7;fill-opacity:1;fill-rule:evenodd;stroke:#8e84b7;stroke-width:11.11258698;stroke-opacity:1;font-family:DejaVu Sans;-inkscape-font-specification:DejaVu Sans" id="text3871-9-7" sodipodi:linespacing="100%" x="-5838.8872" y="7074.9004" transform="matrix(0.09792319,-0.99519398,0.99519398,0.09792319,0,0)"><tspan style="font-size:177.8013916px;font-style:normal;font-variant:normal;font-weight:normal;font-stretch:normal;text-align:start;line-height:100%;writing-mode:lr-tb;text-anchor:start;stroke-width:11.11258698;font-family:DejaVu Sans;-inkscape-font-specification:DejaVu Sans" id="tspan3960-2">Romano Lecapeno</tspan></text></switch>
<path style="fill:none;stroke:none" d="m 568.01137,469.85643 c -7.32038,42.3729 -12.47591,84.74579 -11.26368,127.11869" id="path4033" sodipodi:nodetypes="cc" transform="matrix(11.112587,0,0,11.112587,-0.47930145,0)"/><path style="fill:none;stroke:none" d="M 559.16133,603.41151 C 558.22138,531.5385 570.16977,459.66548 589.73419,387.79247" id="path4038" transform="matrix(11.112587,0,0,11.112587,-0.47930145,0)" sodipodi:nodetypes="cc"/><switch style="font-size:177.8013916px;font-style:oblique;font-variant:normal;font-weight:normal;font-stretch:normal;text-align:start;line-height:125%;writing-mode:lr-tb;text-anchor:start;fill:#000000;fill-opacity:1;stroke:none;font-family:DejaVu Sans;-inkscape-font-specification:DejaVu Sans Oblique"><text xml:space="preserve" style="font-size:177.8013916px;font-style:oblique;font-variant:normal;font-weight:normal;font-stretch:normal;text-align:start;line-height:125%;writing-mode:lr-tb;text-anchor:start;fill:#000000;fill-opacity:1;stroke:none;font-family:DejaVu Sans;-inkscape-font-specification:DejaVu Sans Oblique" x="4863.7222" y="3799.0037" id="text4043-ca" sodipodi:linespacing="125%" systemLanguage="ca"><tspan sodipodi:role="line" x="4863.7222" y="3799.0037" id="tspan4047-ca">Anquíalos</tspan></text><text xml:space="preserve" style="font-size:177.8013916px;font-style:oblique;font-variant:normal;font-weight:normal;font-stretch:normal;text-align:start;line-height:125%;writing-mode:lr-tb;text-anchor:start;fill:#000000;fill-opacity:1;stroke:none;font-family:DejaVu Sans;-inkscape-font-specification:DejaVu Sans Oblique" x="4863.7222" y="3799.0037" id="text4043" sodipodi:linespacing="125%"><tspan sodipodi:role="line" x="4863.7222" y="3799.0037" id="tspan4047">Anquialo</tspan></text></switch>
<switch style="font-size:177.8013916px;font-style:oblique;font-variant:normal;font-weight:normal;font-stretch:normal;text-align:start;line-height:100%;writing-mode:lr-tb;text-anchor:start;fill:#0978ab;fill-opacity:1;fill-rule:evenodd;stroke:none;stroke-width:11.11258698;stroke-opacity:1;font-family:DejaVu Sans;-inkscape-font-specification:DejaVu Sans Oblique;"><text xml:space="preserve" style="font-size:177.8013916px;font-style:oblique;font-variant:normal;font-weight:normal;font-stretch:normal;text-align:start;line-height:100%;writing-mode:lr-tb;text-anchor:start;fill:#0978ab;fill-opacity:1;fill-rule:evenodd;stroke:none;stroke-width:11.11258698;stroke-opacity:1;font-family:DejaVu Sans;-inkscape-font-specification:DejaVu Sans Oblique;" id="text3871-3-0-ca" sodipodi:linespacing="100%" x="1997.9098" y="-3534.9878" transform="matrix(0.45224905,0.8918917,-0.8918917,0.45224905,0,0)" systemLanguage="ca"><tspan style="font-size:177.8013916px;font-style:oblique;font-variant:normal;font-weight:normal;font-stretch:normal;text-align:start;line-height:100%;writing-mode:lr-tb;text-anchor:start;stroke-width:11.11258698;font-family:DejaVu Sans;-inkscape-font-specification:DejaVu Sans Oblique;stroke:none;fill:#0978ab;fill-opacity:1;" id="tspan3907-1-ca">Aqueloos</tspan></text><text xml:space="preserve" style="font-size:177.8013916px;font-style:oblique;font-variant:normal;font-weight:normal;font-stretch:normal;text-align:start;line-height:100%;writing-mode:lr-tb;text-anchor:start;fill:#0978ab;fill-opacity:1;fill-rule:evenodd;stroke:none;stroke-width:11.11258698;stroke-opacity:1;font-family:DejaVu Sans;-inkscape-font-specification:DejaVu Sans Oblique;" id="text3871-3-0" sodipodi:linespacing="100%" x="1997.9098" y="-3534.9878" transform="matrix(0.45224905,0.8918917,-0.8918917,0.45224905,0,0)"><tspan style="font-size:177.8013916px;font-style:oblique;font-variant:normal;font-weight:normal;font-stretch:normal;text-align:start;line-height:100%;writing-mode:lr-tb;text-anchor:start;stroke-width:11.11258698;font-family:DejaVu Sans;-inkscape-font-specification:DejaVu Sans Oblique;stroke:none;fill:#0978ab;fill-opacity:1;" id="tspan3907-1">Aqueloo</tspan></text></switch>
<path style="fill:none;stroke:none" d="m 4084.6247,156.08169 303.9809,894.06181" id="path4079"/><switch style="font-size:177.8013916px;font-style:oblique;font-variant:normal;font-weight:normal;font-stretch:normal;text-align:start;line-height:125%;writing-mode:lr-tb;text-anchor:start;fill:#000000;fill-opacity:1;fill-rule:evenodd;stroke:none;font-family:DejaVu Sans;-inkscape-font-specification:DejaVu Sans Oblique"><text xml:space="preserve" style="font-size:177.8013916px;font-style:oblique;font-variant:normal;font-weight:normal;font-stretch:normal;text-align:start;line-height:125%;writing-mode:lr-tb;text-anchor:start;fill:#000000;fill-opacity:1;fill-rule:evenodd;stroke:none;font-family:DejaVu Sans;-inkscape-font-specification:DejaVu Sans Oblique" x="6254.4873" y="1050.5745" id="text4043-4-ca" sodipodi:linespacing="125%" systemLanguage="ca"><tspan sodipodi:role="line" x="6254.4873" y="1050.5745" id="tspan4047-3-ca">Mesèmbria</tspan></text><text xml:space="preserve" style="font-size:177.8013916px;font-style:oblique;font-variant:normal;font-weight:normal;font-stretch:normal;text-align:start;line-height:125%;writing-mode:lr-tb;text-anchor:start;fill:#000000;fill-opacity:1;fill-rule:evenodd;stroke:none;font-family:DejaVu Sans;-inkscape-font-specification:DejaVu Sans Oblique" x="6254.4873" y="1050.5745" id="text4043-4" sodipodi:linespacing="125%"><tspan sodipodi:role="line" x="6254.4873" y="1050.5745" id="tspan4047-3">Mesembria</tspan></text></switch>
</g></svg>
